#VRML V2.0 utf8
# Generated by VRML 2.0 driver of GEANT4


#---------- CAMERA
Viewpoint {
	position 0 0 1732.05
}

#---------- SOLID: world:0
	Shape {
		appearance Appearance {
			material Material {
				diffuseColor 1 1 1
				transparency 0.7
			}
		}
		geometry IndexedFaceSet {
			coord Coordinate {
				point [
					-500 -500 -500,
					500 -500 -500,
					500 500 -500,
					-500 500 -500,
					-500 -500 500,
					500 -500 500,
					500 500 500,
					-500 500 500,
				]
			}
			coordIndex [
				0, 3, 2, 1, -1,
				4, 7, 3, 0, -1,
				7, 6, 2, 3, -1,
				6, 5, 1, 2, -1,
				5, 4, 0, 1, -1,
				4, 5, 6, 7, -1,
			]
			solid FALSE
		}
	}
#---------- SOLID: water:0
	Shape {
		appearance Appearance {
			material Material {
				diffuseColor 0.2 0.5 1
				transparency 0.7
			}
		}
		geometry IndexedFaceSet {
			coord Coordinate {
				point [
					-50 -50 -50,
					50 -50 -50,
					50 50 -50,
					-50 50 -50,
					-50 -50 50,
					50 -50 50,
					50 50 50,
					-50 50 50,
				]
			}
			coordIndex [
				0, 3, 2, 1, -1,
				4, 7, 3, 0, -1,
				7, 6, 2, 3, -1,
				6, 5, 1, 2, -1,
				5, 4, 0, 1, -1,
				4, 5, 6, 7, -1,
			]
			solid FALSE
		}
	}
#---------- POLYLINE
Shape {
	appearance Appearance {
		material Material {
			diffuseColor 0 1 0
			emissiveColor 0 1 0
		}
	}
	geometry IndexedLineSet {
		coord Coordinate {
			point [
				-14.7804 4.71004 -100,
				-14.7804 4.71004 -50,
				-14.7804 4.71004 50,
				-14.7804 4.71004 500,
			]
		}
		coordIndex [
			0, 1, 2, 3, -1
		]
	}
}
#---------- POLYLINE
Shape {
	appearance Appearance {
		material Material {
			diffuseColor 0 1 0
			emissiveColor 0 1 0
		}
	}
	geometry IndexedLineSet {
		coord Coordinate {
			point [
				-8.40518 -1.07823 -100,
				-8.40518 -1.07823 -50,
				-8.40518 -1.07823 -42.1438,
				28.1618 -5.61045 -44.1926,
				26.8318 -6.9085 -45.1709,
				31.9553 -2.96967 -39.6958,
				38.9631 -0.0494112 -42.9049,
				9.84437 -12.1526 -50,
				-500 -224.069 -174.229,
			]
		}
		coordIndex [
			0, 1, 2, 3, 4, 5, 6, 7, 8, -1
		]
	}
}
#---------- POLYLINE
Shape {
	appearance Appearance {
		material Material {
			diffuseColor 0 1 0
			emissiveColor 0 1 0
		}
	}
	geometry IndexedLineSet {
		coord Coordinate {
			point [
				-6.89816 -14.3404 -100,
				-6.89816 -14.3404 -50,
				-6.89816 -14.3404 50,
				-6.89816 -14.3404 500,
			]
		}
		coordIndex [
			0, 1, 2, 3, -1
		]
	}
}
#---------- POLYLINE
Shape {
	appearance Appearance {
		material Material {
			diffuseColor 0 1 0
			emissiveColor 0 1 0
		}
	}
	geometry IndexedLineSet {
		coord Coordinate {
			point [
				-3.454 -5.99075 -100,
				-3.454 -5.99075 -50,
				-3.454 -5.99075 -26.6104,
				4.0658 -13.9721 -35.4288,
				-11.1474 -4.6009 -28.918,
				-9.84738 -23.5568 -50,
				17.9009 -428.174 -500,
			]
		}
		coordIndex [
			0, 1, 2, 3, 4, 5, 6, -1
		]
	}
}
#---------- POLYLINE
Shape {
	appearance Appearance {
		material Material {
			diffuseColor 0 1 0
			emissiveColor 0 1 0
		}
	}
	geometry IndexedLineSet {
		coord Coordinate {
			point [
				-8.27403 17.7481 -100,
				-8.27403 17.7481 -50,
				-8.27403 17.7481 -32.5204,
				19.9152 37.2406 -50,
				500 369.213 -347.691,
			]
		}
		coordIndex [
			0, 1, 2, 3, 4, -1
		]
	}
}
#---------- POLYLINE
Shape {
	appearance Appearance {
		material Material {
			diffuseColor 0 1 0
			emissiveColor 0 1 0
		}
	}
	geometry IndexedLineSet {
		coord Coordinate {
			point [
				1.65969 -17.8678 -100,
				1.65969 -17.8678 -50,
				1.65969 -17.8678 50,
				1.65969 -17.8678 500,
			]
		}
		coordIndex [
			0, 1, 2, 3, -1
		]
	}
}
#---------- POLYLINE
Shape {
	appearance Appearance {
		material Material {
			diffuseColor 0 1 0
			emissiveColor 0 1 0
		}
	}
	geometry IndexedLineSet {
		coord Coordinate {
			point [
				5.8785 -0.601081 -100,
				5.8785 -0.601081 -50,
				5.8785 -0.601081 50,
				5.8785 -0.601081 500,
			]
		}
		coordIndex [
			0, 1, 2, 3, -1
		]
	}
}
#---------- POLYLINE
Shape {
	appearance Appearance {
		material Material {
			diffuseColor 0 1 0
			emissiveColor 0 1 0
		}
	}
	geometry IndexedLineSet {
		coord Coordinate {
			point [
				12.0348 -0.549728 -100,
				12.0348 -0.549728 -50,
				12.0348 -0.549728 50,
				12.0348 -0.549728 500,
			]
		}
		coordIndex [
			0, 1, 2, 3, -1
		]
	}
}
#---------- POLYLINE
Shape {
	appearance Appearance {
		material Material {
			diffuseColor 0 1 0
			emissiveColor 0 1 0
		}
	}
	geometry IndexedLineSet {
		coord Coordinate {
			point [
				-7.05829 -2.11832 -100,
				-7.05829 -2.11832 -50,
				-7.05829 -2.11832 -36.7321,
				-50 -14.7039 -36.2497,
				-500 -146.592 -31.1944,
			]
		}
		coordIndex [
			0, 1, 2, 3, 4, -1
		]
	}
}
#---------- POLYLINE
Shape {
	appearance Appearance {
		material Material {
			diffuseColor 0 1 0
			emissiveColor 0 1 0
		}
	}
	geometry IndexedLineSet {
		coord Coordinate {
			point [
				-1.76547 -5.99256 -100,
				-1.76547 -5.99256 -50,
				-1.76547 -5.99256 -45.2066,
				50 38.5695 -41.7045,
				500 425.95 -11.2605,
			]
		}
		coordIndex [
			0, 1, 2, 3, 4, -1
		]
	}
}
#---------- POLYLINE
Shape {
	appearance Appearance {
		material Material {
			diffuseColor 0 1 0
			emissiveColor 0 1 0
		}
	}
	geometry IndexedLineSet {
		coord Coordinate {
			point [
				-1.36231 -13.7721 -100,
				-1.36231 -13.7721 -50,
				-1.36231 -13.7721 -8.58935,
				-0.0608136 -12.2773 -4.03446,
				-17.3197 -26.0877 -20.3571,
				-18.8971 -22.9254 -50,
				-42.8426 25.081 -500,
			]
		}
		coordIndex [
			0, 1, 2, 3, 4, 5, 6, -1
		]
	}
}
#---------- POLYLINE
Shape {
	appearance Appearance {
		material Material {
			diffuseColor 0 1 0
			emissiveColor 0 1 0
		}
	}
	geometry IndexedLineSet {
		coord Coordinate {
			point [
				18.4715 -1.62141 -100,
				18.4715 -1.62141 -50,
				18.4715 -1.62141 -17.0398,
				50 -48.7529 -9.29021,
				351.861 -500 64.9056,
			]
		}
		coordIndex [
			0, 1, 2, 3, 4, -1
		]
	}
}
#---------- POLYLINE
Shape {
	appearance Appearance {
		material Material {
			diffuseColor 0 1 0
			emissiveColor 0 1 0
		}
	}
	geometry IndexedLineSet {
		coord Coordinate {
			point [
				16.2897 7.74798 -100,
				16.2897 7.74798 -50,
				16.2897 7.74798 -17.4195,
				50 8.7058 -2.23754,
				500 21.4918 200.427,
			]
		}
		coordIndex [
			0, 1, 2, 3, 4, -1
		]
	}
}
#---------- POLYLINE
Shape {
	appearance Appearance {
		material Material {
			diffuseColor 0 1 0
			emissiveColor 0 1 0
		}
	}
	geometry IndexedLineSet {
		coord Coordinate {
			point [
				17.767 6.4194 -100,
				17.767 6.4194 -50,
				17.767 6.4194 -32.8715,
				-14.3934 -50 12.0868,
				-270.904 -500 370.673,
			]
		}
		coordIndex [
			0, 1, 2, 3, 4, -1
		]
	}
}
#---------- POLYLINE
Shape {
	appearance Appearance {
		material Material {
			diffuseColor 0 1 0
			emissiveColor 0 1 0
		}
	}
	geometry IndexedLineSet {
		coord Coordinate {
			point [
				17.3465 4.87371 -100,
				17.3465 4.87371 -50,
				17.3465 4.87371 50,
				17.3465 4.87371 500,
			]
		}
		coordIndex [
			0, 1, 2, 3, -1
		]
	}
}
#---------- POLYLINE
Shape {
	appearance Appearance {
		material Material {
			diffuseColor 0 1 0
			emissiveColor 0 1 0
		}
	}
	geometry IndexedLineSet {
		coord Coordinate {
			point [
				3.71915 -2.79848 -100,
				3.71915 -2.79848 -50,
				3.71915 -2.79848 50,
				3.71915 -2.79848 500,
			]
		}
		coordIndex [
			0, 1, 2, 3, -1
		]
	}
}
#---------- POLYLINE
Shape {
	appearance Appearance {
		material Material {
			diffuseColor 0 1 0
			emissiveColor 0 1 0
		}
	}
	geometry IndexedLineSet {
		coord Coordinate {
			point [
				10.1841 -4.12629 -100,
				10.1841 -4.12629 -50,
				10.1841 -4.12629 -13.0485,
				-20.4018 -10.4138 50,
				-238.705 -55.2905 500,
			]
		}
		coordIndex [
			0, 1, 2, 3, 4, -1
		]
	}
}
#---------- POLYLINE
Shape {
	appearance Appearance {
		material Material {
			diffuseColor 0 1 0
			emissiveColor 0 1 0
		}
	}
	geometry IndexedLineSet {
		coord Coordinate {
			point [
				19.6122 -0.969438 -100,
				19.6122 -0.969438 -50,
				19.6122 -0.969438 -39.244,
				-2.82151 15.4041 -33.6137,
				-18.702 24.4286 -30.4039,
				-25.1689 50 -12.8538,
				-138.973 500 295.988,
			]
		}
		coordIndex [
			0, 1, 2, 3, 4, 5, 6, -1
		]
	}
}
#---------- POLYLINE
Shape {
	appearance Appearance {
		material Material {
			diffuseColor 0 1 0
			emissiveColor 0 1 0
		}
	}
	geometry IndexedLineSet {
		coord Coordinate {
			point [
				-2.08234 10.9391 -100,
				-2.08234 10.9391 -50,
				-2.08234 10.9391 50,
				-2.08234 10.9391 500,
			]
		}
		coordIndex [
			0, 1, 2, 3, -1
		]
	}
}
#---------- POLYLINE
Shape {
	appearance Appearance {
		material Material {
			diffuseColor 0 1 0
			emissiveColor 0 1 0
		}
	}
	geometry IndexedLineSet {
		coord Coordinate {
			point [
				1.179 16.0441 -100,
				1.179 16.0441 -50,
				1.179 16.0441 50,
				1.179 16.0441 500,
			]
		}
		coordIndex [
			0, 1, 2, 3, -1
		]
	}
}
#---------- POLYLINE
Shape {
	appearance Appearance {
		material Material {
			diffuseColor 0 1 0
			emissiveColor 0 1 0
		}
	}
	geometry IndexedLineSet {
		coord Coordinate {
			point [
				-6.94922 17.07 -100,
				-6.94922 17.07 -50,
				-6.94922 17.07 50,
				-6.94922 17.07 500,
			]
		}
		coordIndex [
			0, 1, 2, 3, -1
		]
	}
}
#---------- POLYLINE
Shape {
	appearance Appearance {
		material Material {
			diffuseColor 0 1 0
			emissiveColor 0 1 0
		}
	}
	geometry IndexedLineSet {
		coord Coordinate {
			point [
				-13.7785 13.2271 -100,
				-13.7785 13.2271 -50,
				-13.7785 13.2271 -17.263,
				-11.2347 13.8375 -18.4063,
				-12.6233 14.6176 -16.0464,
				-19.5487 17.2861 -7.17015,
				-34.321 -25.8473 -50,
				-189.53 -479.036 -500,
			]
		}
		coordIndex [
			0, 1, 2, 3, 4, 5, 6, 7, -1
		]
	}
}
#---------- POLYLINE
Shape {
	appearance Appearance {
		material Material {
			diffuseColor 0 1 0
			emissiveColor 0 1 0
		}
	}
	geometry IndexedLineSet {
		coord Coordinate {
			point [
				-7.10635 11.2558 -100,
				-7.10635 11.2558 -50,
				-7.10635 11.2558 -47.7914,
				-43.8763 -2.47889 -30.6924,
				-45.4856 0.883821 9.00245,
				-50 2.1393 2.6466,
				-407.021 101.428 -500,
			]
		}
		coordIndex [
			0, 1, 2, 3, 4, 5, 6, -1
		]
	}
}
#---------- POLYLINE
Shape {
	appearance Appearance {
		material Material {
			diffuseColor 0 1 0
			emissiveColor 0 1 0
		}
	}
	geometry IndexedLineSet {
		coord Coordinate {
			point [
				2.97545 10.8854 -100,
				2.97545 10.8854 -50,
				2.97545 10.8854 3.48229,
				26.3153 -7.6092 -25.0202,
				30.0323 37.8428 -19.7588,
				29.4544 50 0.0851621,
				14.8971 356.269 500,
			]
		}
		coordIndex [
			0, 1, 2, 3, 4, 5, 6, -1
		]
	}
}
#---------- POLYLINE
Shape {
	appearance Appearance {
		material Material {
			diffuseColor 0 1 0
			emissiveColor 0 1 0
		}
	}
	geometry IndexedLineSet {
		coord Coordinate {
			point [
				-3.66184 -15.1121 -100,
				-3.66184 -15.1121 -50,
				-3.66184 -15.1121 -37.4618,
				-5.1292 -50 -7.98184,
				-24.0559 -500 372.264,
			]
		}
		coordIndex [
			0, 1, 2, 3, 4, -1
		]
	}
}
#---------- POLYLINE
Shape {
	appearance Appearance {
		material Material {
			diffuseColor 0 1 0
			emissiveColor 0 1 0
		}
	}
	geometry IndexedLineSet {
		coord Coordinate {
			point [
				-7.70618 6.94382 -100,
				-7.70618 6.94382 -50,
				-7.70618 6.94382 50,
				-7.70618 6.94382 500,
			]
		}
		coordIndex [
			0, 1, 2, 3, -1
		]
	}
}
#---------- POLYLINE
Shape {
	appearance Appearance {
		material Material {
			diffuseColor 0 1 0
			emissiveColor 0 1 0
		}
	}
	geometry IndexedLineSet {
		coord Coordinate {
			point [
				-2.61668 -3.75637 -100,
				-2.61668 -3.75637 -50,
				-2.61668 -3.75637 -36.2299,
				-50 -38.8127 40.4306,
				-334.056 -248.97 500,
			]
		}
		coordIndex [
			0, 1, 2, 3, 4, -1
		]
	}
}
#---------- POLYLINE
Shape {
	appearance Appearance {
		material Material {
			diffuseColor 0 1 0
			emissiveColor 0 1 0
		}
	}
	geometry IndexedLineSet {
		coord Coordinate {
			point [
				12.9674 -4.64888 -100,
				12.9674 -4.64888 -50,
				12.9674 -4.64888 -28.7123,
				-28.5803 -50 -2.01778,
				-440.841 -500 262.861,
			]
		}
		coordIndex [
			0, 1, 2, 3, 4, -1
		]
	}
}
#---------- POLYLINE
Shape {
	appearance Appearance {
		material Material {
			diffuseColor 0 1 0
			emissiveColor 0 1 0
		}
	}
	geometry IndexedLineSet {
		coord Coordinate {
			point [
				-14.397 -6.59363 -100,
				-14.397 -6.59363 -50,
				-14.397 -6.59363 50,
				-14.397 -6.59363 500,
			]
		}
		coordIndex [
			0, 1, 2, 3, -1
		]
	}
}
#---------- POLYLINE
Shape {
	appearance Appearance {
		material Material {
			diffuseColor 0 1 0
			emissiveColor 0 1 0
		}
	}
	geometry IndexedLineSet {
		coord Coordinate {
			point [
				6.30043 -4.40581 -100,
				6.30043 -4.40581 -50,
				6.30043 -4.40581 -7.34405,
				6.32256 -1.42611 -6.39593,
				49.722 12.1233 -20.0037,
				50 12.0957 -20.4167,
				372.851 -19.9499 -500,
			]
		}
		coordIndex [
			0, 1, 2, 3, 4, 5, 6, -1
		]
	}
}
#---------- POLYLINE
Shape {
	appearance Appearance {
		material Material {
			diffuseColor 0 1 0
			emissiveColor 0 1 0
		}
	}
	geometry IndexedLineSet {
		coord Coordinate {
			point [
				8.32847 -14.4076 -100,
				8.32847 -14.4076 -50,
				8.32847 -14.4076 50,
				8.32847 -14.4076 500,
			]
		}
		coordIndex [
			0, 1, 2, 3, -1
		]
	}
}
#---------- POLYLINE
Shape {
	appearance Appearance {
		material Material {
			diffuseColor 0 1 0
			emissiveColor 0 1 0
		}
	}
	geometry IndexedLineSet {
		coord Coordinate {
			point [
				-6.34574 -8.15341 -100,
				-6.34574 -8.15341 -50,
				-6.34574 -8.15341 50,
				-6.34574 -8.15341 500,
			]
		}
		coordIndex [
			0, 1, 2, 3, -1
		]
	}
}
#---------- POLYLINE
Shape {
	appearance Appearance {
		material Material {
			diffuseColor 0 1 0
			emissiveColor 0 1 0
		}
	}
	geometry IndexedLineSet {
		coord Coordinate {
			point [
				-7.56637 -4.80163 -100,
				-7.56637 -4.80163 -50,
				-7.56637 -4.80163 50,
				-7.56637 -4.80163 500,
			]
		}
		coordIndex [
			0, 1, 2, 3, -1
		]
	}
}
#---------- POLYLINE
Shape {
	appearance Appearance {
		material Material {
			diffuseColor 0 1 0
			emissiveColor 0 1 0
		}
	}
	geometry IndexedLineSet {
		coord Coordinate {
			point [
				-12.5711 4.59714 -100,
				-12.5711 4.59714 -50,
				-12.5711 4.59714 38.7717,
				-3.88965 0.994811 50,
				344.04 -143.377 500,
			]
		}
		coordIndex [
			0, 1, 2, 3, 4, -1
		]
	}
}
#---------- POLYLINE
Shape {
	appearance Appearance {
		material Material {
			diffuseColor 0 1 0
			emissiveColor 0 1 0
		}
	}
	geometry IndexedLineSet {
		coord Coordinate {
			point [
				-12.146 4.23746 -100,
				-12.146 4.23746 -50,
				-12.146 4.23746 50,
				-12.146 4.23746 500,
			]
		}
		coordIndex [
			0, 1, 2, 3, -1
		]
	}
}
#---------- POLYLINE
Shape {
	appearance Appearance {
		material Material {
			diffuseColor 0 1 0
			emissiveColor 0 1 0
		}
	}
	geometry IndexedLineSet {
		coord Coordinate {
			point [
				1.48576 16.2514 -100,
				1.48576 16.2514 -50,
				1.48576 16.2514 -31.8355,
				6.47302 14.3416 -20.5121,
				11.5803 7.10365 -7.83887,
				-34.2951 -50 -31.9478,
				-395.812 -500 -221.936,
			]
		}
		coordIndex [
			0, 1, 2, 3, 4, 5, 6, -1
		]
	}
}
#---------- POLYLINE
Shape {
	appearance Appearance {
		material Material {
			diffuseColor 0 1 0
			emissiveColor 0 1 0
		}
	}
	geometry IndexedLineSet {
		coord Coordinate {
			point [
				-4.93129 16.8982 -100,
				-4.93129 16.8982 -50,
				-4.93129 16.8982 -45.534,
				-12.4148 23.4677 -29.2859,
				-14.2221 50 -25.059,
				-44.8749 500 46.6313,
			]
		}
		coordIndex [
			0, 1, 2, 3, 4, 5, -1
		]
	}
}
#---------- POLYLINE
Shape {
	appearance Appearance {
		material Material {
			diffuseColor 0 1 0
			emissiveColor 0 1 0
		}
	}
	geometry IndexedLineSet {
		coord Coordinate {
			point [
				-0.539856 -5.99737 -100,
				-0.539856 -5.99737 -50,
				-0.539856 -5.99737 50,
				-0.539856 -5.99737 500,
			]
		}
		coordIndex [
			0, 1, 2, 3, -1
		]
	}
}
#---------- POLYLINE
Shape {
	appearance Appearance {
		material Material {
			diffuseColor 0 1 0
			emissiveColor 0 1 0
		}
	}
	geometry IndexedLineSet {
		coord Coordinate {
			point [
				9.78038 -10.2289 -100,
				9.78038 -10.2289 -50,
				9.78038 -10.2289 -38.709,
				50 -7.61936 -47.5906,
				500 21.5773 -146.963,
			]
		}
		coordIndex [
			0, 1, 2, 3, 4, -1
		]
	}
}
#---------- POLYLINE
Shape {
	appearance Appearance {
		material Material {
			diffuseColor 0 1 0
			emissiveColor 0 1 0
		}
	}
	geometry IndexedLineSet {
		coord Coordinate {
			point [
				-9.32707 9.81914 -100,
				-9.32707 9.81914 -50,
				-9.32707 9.81914 -30.4968,
				-7.97155 11.324 -27.3016,
				-50 23.9362 -3.28724,
				-500 158.975 253.835,
			]
		}
		coordIndex [
			0, 1, 2, 3, 4, 5, -1
		]
	}
}
#---------- POLYLINE
Shape {
	appearance Appearance {
		material Material {
			diffuseColor 0 1 0
			emissiveColor 0 1 0
		}
	}
	geometry IndexedLineSet {
		coord Coordinate {
			point [
				4.38504 17.4239 -100,
				4.38504 17.4239 -50,
				4.38504 17.4239 50,
				4.38504 17.4239 500,
			]
		}
		coordIndex [
			0, 1, 2, 3, -1
		]
	}
}
#---------- POLYLINE
Shape {
	appearance Appearance {
		material Material {
			diffuseColor 0 1 0
			emissiveColor 0 1 0
		}
	}
	geometry IndexedLineSet {
		coord Coordinate {
			point [
				-2.40538 -11.5225 -100,
				-2.40538 -11.5225 -50,
				-2.40538 -11.5225 -38.4026,
				-9.54022 -6.65228 -28.9187,
				-19.5834 50 22.649,
				-99.3587 500 432.261,
			]
		}
		coordIndex [
			0, 1, 2, 3, 4, 5, -1
		]
	}
}
#---------- POLYLINE
Shape {
	appearance Appearance {
		material Material {
			diffuseColor 0 1 0
			emissiveColor 0 1 0
		}
	}
	geometry IndexedLineSet {
		coord Coordinate {
			point [
				11.3745 3.3975 -100,
				11.3745 3.3975 -50,
				11.3745 3.3975 50,
				11.3745 3.3975 500,
			]
		}
		coordIndex [
			0, 1, 2, 3, -1
		]
	}
}
#---------- POLYLINE
Shape {
	appearance Appearance {
		material Material {
			diffuseColor 0 1 0
			emissiveColor 0 1 0
		}
	}
	geometry IndexedLineSet {
		coord Coordinate {
			point [
				-5.63495 7.87314 -100,
				-5.63495 7.87314 -50,
				-5.63495 7.87314 -48.2964,
				-0.654198 32.6039 -36.5708,
				-4.78434 44.5446 -43.0206,
				-14.3579 39.8777 -50,
				-500 -196.86 -404.049,
			]
		}
		coordIndex [
			0, 1, 2, 3, 4, 5, 6, -1
		]
	}
}
#---------- POLYLINE
Shape {
	appearance Appearance {
		material Material {
			diffuseColor 0 1 0
			emissiveColor 0 1 0
		}
	}
	geometry IndexedLineSet {
		coord Coordinate {
			point [
				7.86895 15.8446 -100,
				7.86895 15.8446 -50,
				7.86895 15.8446 11.426,
				5.92994 24.4339 6.57977,
				25.9332 50 -24.4688,
				332.298 441.563 -500,
			]
		}
		coordIndex [
			0, 1, 2, 3, 4, 5, -1
		]
	}
}
#---------- POLYLINE
Shape {
	appearance Appearance {
		material Material {
			diffuseColor 0 1 0
			emissiveColor 0 1 0
		}
	}
	geometry IndexedLineSet {
		coord Coordinate {
			point [
				14.8302 4.11425 -100,
				14.8302 4.11425 -50,
				14.8302 4.11425 -0.110658,
				5.88277 12.4094 10.7744,
				-24.9618 21.2171 8.08006,
				-50 27.0641 -25.6002,
				-402.674 109.422 -500,
			]
		}
		coordIndex [
			0, 1, 2, 3, 4, 5, 6, -1
		]
	}
}
#---------- POLYLINE
Shape {
	appearance Appearance {
		material Material {
			diffuseColor 0 1 0
			emissiveColor 0 1 0
		}
	}
	geometry IndexedLineSet {
		coord Coordinate {
			point [
				0.331007 -6.31697 -100,
				0.331007 -6.31697 -50,
				0.331007 -6.31697 14.2384,
				-6.44558 7.72176 42.7069,
				-2.15841 31.5979 35.3307,
				4.31947 46.9307 -18.7103,
				5.14549 46.5934 -16.8464,
				4.41577 50 -19.9559,
				-91.978 500 -430.701,
			]
		}
		coordIndex [
			0, 1, 2, 3, 4, 5, 6, 7, 8, -1
		]
	}
}
#---------- POLYLINE
Shape {
	appearance Appearance {
		material Material {
			diffuseColor 0 1 0
			emissiveColor 0 1 0
		}
	}
	geometry IndexedLineSet {
		coord Coordinate {
			point [
				11.7587 -8.05745 -100,
				11.7587 -8.05745 -50,
				11.7587 -8.05745 50,
				11.7587 -8.05745 500,
			]
		}
		coordIndex [
			0, 1, 2, 3, -1
		]
	}
}
#---------- POLYLINE
Shape {
	appearance Appearance {
		material Material {
			diffuseColor 0 1 0
			emissiveColor 0 1 0
		}
	}
	geometry IndexedLineSet {
		coord Coordinate {
			point [
				-18.0704 1.45795 -100,
				-18.0704 1.45795 -50,
				-18.0704 1.45795 50,
				-18.0704 1.45795 500,
			]
		}
		coordIndex [
			0, 1, 2, 3, -1
		]
	}
}
#---------- POLYLINE
Shape {
	appearance Appearance {
		material Material {
			diffuseColor 0 1 0
			emissiveColor 0 1 0
		}
	}
	geometry IndexedLineSet {
		coord Coordinate {
			point [
				-8.59232 -4.21167 -100,
				-8.59232 -4.21167 -50,
				-8.59232 -4.21167 -25.3653,
				-13.3895 -4.9258 -29.1568,
				-26.9832 7.7986 -20.4913,
				-36.5464 22.106 -18.2485,
				50 -26.7851 27.0722,
				500 -280.995 262.718,
			]
		}
		coordIndex [
			0, 1, 2, 3, 4, 5, 6, 7, -1
		]
	}
}
#---------- POLYLINE
Shape {
	appearance Appearance {
		material Material {
			diffuseColor 0 1 0
			emissiveColor 0 1 0
		}
	}
	geometry IndexedLineSet {
		coord Coordinate {
			point [
				6.10794 -8.57578 -100,
				6.10794 -8.57578 -50,
				6.10794 -8.57578 -1.33876,
				-50 -41.4063 25.3924,
				-500 -304.715 239.783,
			]
		}
		coordIndex [
			0, 1, 2, 3, 4, -1
		]
	}
}
#---------- POLYLINE
Shape {
	appearance Appearance {
		material Material {
			diffuseColor 0 1 0
			emissiveColor 0 1 0
		}
	}
	geometry IndexedLineSet {
		coord Coordinate {
			point [
				-1.39132 -7.88291 -100,
				-1.39132 -7.88291 -50,
				-1.39132 -7.88291 50,
				-1.39132 -7.88291 500,
			]
		}
		coordIndex [
			0, 1, 2, 3, -1
		]
	}
}
#---------- POLYLINE
Shape {
	appearance Appearance {
		material Material {
			diffuseColor 0 1 0
			emissiveColor 0 1 0
		}
	}
	geometry IndexedLineSet {
		coord Coordinate {
			point [
				1.21971 -9.04822 -100,
				1.21971 -9.04822 -50,
				1.21971 -9.04822 -5.19523,
				-6.25303 -28.428 37.3534,
				50 4.41858 34.2149,
				500 267.177 9.10785,
			]
		}
		coordIndex [
			0, 1, 2, 3, 4, 5, -1
		]
	}
}
#---------- POLYLINE
Shape {
	appearance Appearance {
		material Material {
			diffuseColor 0 1 0
			emissiveColor 0 1 0
		}
	}
	geometry IndexedLineSet {
		coord Coordinate {
			point [
				-11.0955 -13.5524 -100,
				-11.0955 -13.5524 -50,
				-11.0955 -13.5524 -49.4846,
				11.8592 50 25.451,
				157.226 452.462 500,
			]
		}
		coordIndex [
			0, 1, 2, 3, 4, -1
		]
	}
}
#---------- POLYLINE
Shape {
	appearance Appearance {
		material Material {
			diffuseColor 0 1 0
			emissiveColor 0 1 0
		}
	}
	geometry IndexedLineSet {
		coord Coordinate {
			point [
				-1.3741 -15.8334 -100,
				-1.3741 -15.8334 -50,
				-1.3741 -15.8334 14.4814,
				0.896713 -5.65303 50,
				29.6666 123.327 500,
			]
		}
		coordIndex [
			0, 1, 2, 3, 4, -1
		]
	}
}
#---------- POLYLINE
Shape {
	appearance Appearance {
		material Material {
			diffuseColor 0 1 0
			emissiveColor 0 1 0
		}
	}
	geometry IndexedLineSet {
		coord Coordinate {
			point [
				-0.726617 -11.9692 -100,
				-0.726617 -11.9692 -50,
				-0.726617 -11.9692 36.4796,
				-2.9443 -17.4392 50,
				-76.7558 -199.497 500,
			]
		}
		coordIndex [
			0, 1, 2, 3, 4, -1
		]
	}
}
#---------- POLYLINE
Shape {
	appearance Appearance {
		material Material {
			diffuseColor 0 1 0
			emissiveColor 0 1 0
		}
	}
	geometry IndexedLineSet {
		coord Coordinate {
			point [
				-4.26133 -3.34244 -100,
				-4.26133 -3.34244 -50,
				-4.26133 -3.34244 33.4394,
				50 -28.9507 -5.78165,
				500 -241.325 -331.05,
			]
		}
		coordIndex [
			0, 1, 2, 3, 4, -1
		]
	}
}
#---------- POLYLINE
Shape {
	appearance Appearance {
		material Material {
			diffuseColor 0 1 0
			emissiveColor 0 1 0
		}
	}
	geometry IndexedLineSet {
		coord Coordinate {
			point [
				-3.604 5.37839 -100,
				-3.604 5.37839 -50,
				-3.604 5.37839 50,
				-3.604 5.37839 500,
			]
		}
		coordIndex [
			0, 1, 2, 3, -1
		]
	}
}
#---------- POLYLINE
Shape {
	appearance Appearance {
		material Material {
			diffuseColor 0 1 0
			emissiveColor 0 1 0
		}
	}
	geometry IndexedLineSet {
		coord Coordinate {
			point [
				-2.16419 3.6707 -100,
				-2.16419 3.6707 -50,
				-2.16419 3.6707 11.5007,
				-0.925923 42.1001 50,
				13.5476 491.283 500,
			]
		}
		coordIndex [
			0, 1, 2, 3, 4, -1
		]
	}
}
#---------- POLYLINE
Shape {
	appearance Appearance {
		material Material {
			diffuseColor 0 1 0
			emissiveColor 0 1 0
		}
	}
	geometry IndexedLineSet {
		coord Coordinate {
			point [
				-0.922328 -5.93607 -100,
				-0.922328 -5.93607 -50,
				-0.922328 -5.93607 50,
				-0.922328 -5.93607 500,
			]
		}
		coordIndex [
			0, 1, 2, 3, -1
		]
	}
}
#---------- POLYLINE
Shape {
	appearance Appearance {
		material Material {
			diffuseColor 0 1 0
			emissiveColor 0 1 0
		}
	}
	geometry IndexedLineSet {
		coord Coordinate {
			point [
				-3.63945 13.1962 -100,
				-3.63945 13.1962 -50,
				-3.63945 13.1962 -22.4865,
				-7.84676 8.7234 50,
				-33.966 -19.0438 500,
			]
		}
		coordIndex [
			0, 1, 2, 3, 4, -1
		]
	}
}
#---------- POLYLINE
Shape {
	appearance Appearance {
		material Material {
			diffuseColor 0 1 0
			emissiveColor 0 1 0
		}
	}
	geometry IndexedLineSet {
		coord Coordinate {
			point [
				-12.1676 11.3553 -100,
				-12.1676 11.3553 -50,
				-12.1676 11.3553 12.3666,
				1.9175 46.2326 26.7737,
				2.8091 50 32.702,
				73.0887 346.963 500,
			]
		}
		coordIndex [
			0, 1, 2, 3, 4, 5, -1
		]
	}
}
#---------- POLYLINE
Shape {
	appearance Appearance {
		material Material {
			diffuseColor 0 1 0
			emissiveColor 0 1 0
		}
	}
	geometry IndexedLineSet {
		coord Coordinate {
			point [
				5.25031 6.24306 -100,
				5.25031 6.24306 -50,
				5.25031 6.24306 50,
				5.25031 6.24306 500,
			]
		}
		coordIndex [
			0, 1, 2, 3, -1
		]
	}
}
#---------- POLYLINE
Shape {
	appearance Appearance {
		material Material {
			diffuseColor 0 1 0
			emissiveColor 0 1 0
		}
	}
	geometry IndexedLineSet {
		coord Coordinate {
			point [
				-9.14442 -6.46177 -100,
				-9.14442 -6.46177 -50,
				-9.14442 -6.46177 8.4348,
				-50 -43.2526 14.225,
				-500 -448.482 78.0007,
			]
		}
		coordIndex [
			0, 1, 2, 3, 4, -1
		]
	}
}
#---------- POLYLINE
Shape {
	appearance Appearance {
		material Material {
			diffuseColor 0 1 0
			emissiveColor 0 1 0
		}
	}
	geometry IndexedLineSet {
		coord Coordinate {
			point [
				-0.67748 -9.47409 -100,
				-0.67748 -9.47409 -50,
				-0.67748 -9.47409 -30.8846,
				6.93122 36.2436 50,
				49.2621 290.593 500,
			]
		}
		coordIndex [
			0, 1, 2, 3, 4, -1
		]
	}
}
#---------- POLYLINE
Shape {
	appearance Appearance {
		material Material {
			diffuseColor 0 1 0
			emissiveColor 0 1 0
		}
	}
	geometry IndexedLineSet {
		coord Coordinate {
			point [
				-1.52278 8.15206 -100,
				-1.52278 8.15206 -50,
				-1.52278 8.15206 50,
				-1.52278 8.15206 500,
			]
		}
		coordIndex [
			0, 1, 2, 3, -1
		]
	}
}
#---------- POLYLINE
Shape {
	appearance Appearance {
		material Material {
			diffuseColor 0 1 0
			emissiveColor 0 1 0
		}
	}
	geometry IndexedLineSet {
		coord Coordinate {
			point [
				5.1949 7.91805 -100,
				5.1949 7.91805 -50,
				5.1949 7.91805 19.7229,
				20.1737 10.9723 50,
				242.799 56.3666 500,
			]
		}
		coordIndex [
			0, 1, 2, 3, 4, -1
		]
	}
}
#---------- POLYLINE
Shape {
	appearance Appearance {
		material Material {
			diffuseColor 0 1 0
			emissiveColor 0 1 0
		}
	}
	geometry IndexedLineSet {
		coord Coordinate {
			point [
				8.6271 -15.4385 -100,
				8.6271 -15.4385 -50,
				8.6271 -15.4385 -40.6701,
				8.51238 -5.20066 -7.97921,
				38.6708 43.8109 12.4916,
				49.4507 41.7753 5.95772,
				46.301 46.7075 7.59579,
				38.4768 49.6957 -0.217971,
				38.1636 50 -0.503168,
				-424.992 500 -422.229,
			]
		}
		coordIndex [
			0, 1, 2, 3, 4, 5, 6, 7, 8, 9, -1
		]
	}
}
#---------- POLYLINE
Shape {
	appearance Appearance {
		material Material {
			diffuseColor 0 1 0
			emissiveColor 0 1 0
		}
	}
	geometry IndexedLineSet {
		coord Coordinate {
			point [
				1.4481 -12.4893 -100,
				1.4481 -12.4893 -50,
				1.4481 -12.4893 50,
				1.4481 -12.4893 500,
			]
		}
		coordIndex [
			0, 1, 2, 3, -1
		]
	}
}
#---------- POLYLINE
Shape {
	appearance Appearance {
		material Material {
			diffuseColor 0 1 0
			emissiveColor 0 1 0
		}
	}
	geometry IndexedLineSet {
		coord Coordinate {
			point [
				2.93802 -8.47382 -100,
				2.93802 -8.47382 -50,
				2.93802 -8.47382 -22.7341,
				1.524 -9.58744 29.8301,
				15.0521 11.9802 50,
				316.871 493.165 500,
			]
		}
		coordIndex [
			0, 1, 2, 3, 4, 5, -1
		]
	}
}
#---------- POLYLINE
Shape {
	appearance Appearance {
		material Material {
			diffuseColor 0 1 0
			emissiveColor 0 1 0
		}
	}
	geometry IndexedLineSet {
		coord Coordinate {
			point [
				6.38207 6.03405 -100,
				6.38207 6.03405 -50,
				6.38207 6.03405 30.0931,
				7.28613 -2.46027 7.39585,
				25.7737 -13.6223 -1.64949,
				50 -26.9215 -17.1724,
				500 -273.952 -305.509,
			]
		}
		coordIndex [
			0, 1, 2, 3, 4, 5, 6, -1
		]
	}
}
#---------- POLYLINE
Shape {
	appearance Appearance {
		material Material {
			diffuseColor 0 1 0
			emissiveColor 0 1 0
		}
	}
	geometry IndexedLineSet {
		coord Coordinate {
			point [
				1.34123 6.07145 -100,
				1.34123 6.07145 -50,
				1.34123 6.07145 -48.9531,
				11.6727 -50 45.9405,
				61.1082 -318.298 500,
			]
		}
		coordIndex [
			0, 1, 2, 3, 4, -1
		]
	}
}
#---------- POLYLINE
Shape {
	appearance Appearance {
		material Material {
			diffuseColor 0 1 0
			emissiveColor 0 1 0
		}
	}
	geometry IndexedLineSet {
		coord Coordinate {
			point [
				4.97382 -0.767014 -100,
				4.97382 -0.767014 -50,
				4.97382 -0.767014 50,
				4.97382 -0.767014 500,
			]
		}
		coordIndex [
			0, 1, 2, 3, -1
		]
	}
}
#---------- POLYLINE
Shape {
	appearance Appearance {
		material Material {
			diffuseColor 0 1 0
			emissiveColor 0 1 0
		}
	}
	geometry IndexedLineSet {
		coord Coordinate {
			point [
				-11.3021 -5.21472 -100,
				-11.3021 -5.21472 -50,
				-11.3021 -5.21472 -2.50591,
				-10.1996 -5.5245 -1.25096,
				50 26.5707 8.97916,
				500 266.486 85.4507,
			]
		}
		coordIndex [
			0, 1, 2, 3, 4, 5, -1
		]
	}
}
#---------- POLYLINE
Shape {
	appearance Appearance {
		material Material {
			diffuseColor 0 1 0
			emissiveColor 0 1 0
		}
	}
	geometry IndexedLineSet {
		coord Coordinate {
			point [
				-13.8798 -10.6293 -100,
				-13.8798 -10.6293 -50,
				-13.8798 -10.6293 45.9116,
				-0.959094 -9.81893 50,
				500 21.6019 208.515,
			]
		}
		coordIndex [
			0, 1, 2, 3, 4, -1
		]
	}
}
#---------- POLYLINE
Shape {
	appearance Appearance {
		material Material {
			diffuseColor 0 1 0
			emissiveColor 0 1 0
		}
	}
	geometry IndexedLineSet {
		coord Coordinate {
			point [
				-8.15784 -7.91458 -100,
				-8.15784 -7.91458 -50,
				-8.15784 -7.91458 -18.071,
				-3.64546 -39.5872 -17.3516,
				-7.47504 -50 -19.318,
				-172.974 -500 -104.3,
			]
		}
		coordIndex [
			0, 1, 2, 3, 4, 5, -1
		]
	}
}
#---------- POLYLINE
Shape {
	appearance Appearance {
		material Material {
			diffuseColor 0 1 0
			emissiveColor 0 1 0
		}
	}
	geometry IndexedLineSet {
		coord Coordinate {
			point [
				-5.30291 -15.7297 -100,
				-5.30291 -15.7297 -50,
				-5.30291 -15.7297 50,
				-5.30291 -15.7297 500,
			]
		}
		coordIndex [
			0, 1, 2, 3, -1
		]
	}
}
#---------- POLYLINE
Shape {
	appearance Appearance {
		material Material {
			diffuseColor 0 1 0
			emissiveColor 0 1 0
		}
	}
	geometry IndexedLineSet {
		coord Coordinate {
			point [
				-17.1133 7.41737 -100,
				-17.1133 7.41737 -50,
				-17.1133 7.41737 3.29956,
				-5.74569 12.1916 -22.9092,
				-5.01755 48.3923 -3.4533,
				-5.48313 50 -3.11574,
				-135.8 500 91.3681,
			]
		}
		coordIndex [
			0, 1, 2, 3, 4, 5, 6, -1
		]
	}
}
#---------- POLYLINE
Shape {
	appearance Appearance {
		material Material {
			diffuseColor 0 1 0
			emissiveColor 0 1 0
		}
	}
	geometry IndexedLineSet {
		coord Coordinate {
			point [
				11.1598 6.31118 -100,
				11.1598 6.31118 -50,
				11.1598 6.31118 -19.4124,
				-24.0901 50 -5.35081,
				-387.167 500 139.485,
			]
		}
		coordIndex [
			0, 1, 2, 3, 4, -1
		]
	}
}
#---------- POLYLINE
Shape {
	appearance Appearance {
		material Material {
			diffuseColor 0 1 0
			emissiveColor 0 1 0
		}
	}
	geometry IndexedLineSet {
		coord Coordinate {
			point [
				16.5337 -7.51967 -100,
				16.5337 -7.51967 -50,
				16.5337 -7.51967 -33.793,
				-50 40.4728 2.73809,
				-500 365.07 249.816,
			]
		}
		coordIndex [
			0, 1, 2, 3, 4, -1
		]
	}
}
#---------- POLYLINE
Shape {
	appearance Appearance {
		material Material {
			diffuseColor 0 1 0
			emissiveColor 0 1 0
		}
	}
	geometry IndexedLineSet {
		coord Coordinate {
			point [
				-0.551935 18.3982 -100,
				-0.551935 18.3982 -50,
				-0.551935 18.3982 -16.2861,
				0.524597 41.4613 -17.4311,
				5.16594 50 -13.5164,
				249.772 500 192.792,
			]
		}
		coordIndex [
			0, 1, 2, 3, 4, 5, -1
		]
	}
}
#---------- POLYLINE
Shape {
	appearance Appearance {
		material Material {
			diffuseColor 0 1 0
			emissiveColor 0 1 0
		}
	}
	geometry IndexedLineSet {
		coord Coordinate {
			point [
				1.5646 10.3551 -100,
				1.5646 10.3551 -50,
				1.5646 10.3551 38.8776,
				1.57366 10.4218 50,
				1.94035 13.1213 500,
			]
		}
		coordIndex [
			0, 1, 2, 3, 4, -1
		]
	}
}
#---------- POLYLINE
Shape {
	appearance Appearance {
		material Material {
			diffuseColor 0 1 0
			emissiveColor 0 1 0
		}
	}
	geometry IndexedLineSet {
		coord Coordinate {
			point [
				-8.77206 -16.7851 -100,
				-8.77206 -16.7851 -50,
				-8.77206 -16.7851 50,
				-8.77206 -16.7851 500,
			]
		}
		coordIndex [
			0, 1, 2, 3, -1
		]
	}
}
#---------- POLYLINE
Shape {
	appearance Appearance {
		material Material {
			diffuseColor 0 1 0
			emissiveColor 0 1 0
		}
	}
	geometry IndexedLineSet {
		coord Coordinate {
			point [
				-0.290956 -10.3341 -100,
				-0.290956 -10.3341 -50,
				-0.290956 -10.3341 -48.1045,
				23.8064 -21.4803 -10.7276,
				26.8505 -50 6.03854,
				74.8812 -500 270.584,
			]
		}
		coordIndex [
			0, 1, 2, 3, 4, 5, -1
		]
	}
}
#---------- POLYLINE
Shape {
	appearance Appearance {
		material Material {
			diffuseColor 0 1 0
			emissiveColor 0 1 0
		}
	}
	geometry IndexedLineSet {
		coord Coordinate {
			point [
				-1.72221 -7.19322 -100,
				-1.72221 -7.19322 -50,
				-1.72221 -7.19322 -25.1809,
				-17.1129 20.2613 -24.9267,
				-23.6461 26.7486 -22.339,
				-38.3489 49.3537 -29.4684,
				-41.4726 48.2801 -30.3927,
				-41.8645 50 -28.7314,
				-144.405 500 405.923,
			]
		}
		coordIndex [
			0, 1, 2, 3, 4, 5, 6, 7, 8, -1
		]
	}
}
#---------- POLYLINE
Shape {
	appearance Appearance {
		material Material {
			diffuseColor 0 1 0
			emissiveColor 0 1 0
		}
	}
	geometry IndexedLineSet {
		coord Coordinate {
			point [
				-4.30417 -7.53607 -100,
				-4.30417 -7.53607 -50,
				-4.30417 -7.53607 -24.5161,
				42.3631 39.0041 0.0458122,
				50 25.6158 -5.15691,
				349.821 -500 -209.413,
			]
		}
		coordIndex [
			0, 1, 2, 3, 4, 5, -1
		]
	}
}
#---------- POLYLINE
Shape {
	appearance Appearance {
		material Material {
			diffuseColor 0 1 0
			emissiveColor 0 1 0
		}
	}
	geometry IndexedLineSet {
		coord Coordinate {
			point [
				4.78808 -16.5969 -100,
				4.78808 -16.5969 -50,
				4.78808 -16.5969 50,
				4.78808 -16.5969 500,
			]
		}
		coordIndex [
			0, 1, 2, 3, -1
		]
	}
}
#---------- POLYLINE
Shape {
	appearance Appearance {
		material Material {
			diffuseColor 0 1 0
			emissiveColor 0 1 0
		}
	}
	geometry IndexedLineSet {
		coord Coordinate {
			point [
				10.1652 6.27942 -100,
				10.1652 6.27942 -50,
				10.1652 6.27942 -46.3962,
				2.09747 16.7982 -1.25118,
				-43.9095 -1.9191 37.0442,
				-40.9362 -2.44982 27.1682,
				-33.3925 2.96123 18.0692,
				-33.1921 2.92386 17.621,
				-50 10.9917 -17.1467,
				-283.428 123.038 -500,
			]
		}
		coordIndex [
			0, 1, 2, 3, 4, 5, 6, 7, 8, 9, -1
		]
	}
}
#---------- POLYLINE
Shape {
	appearance Appearance {
		material Material {
			diffuseColor 0 1 0
			emissiveColor 0 1 0
		}
	}
	geometry IndexedLineSet {
		coord Coordinate {
			point [
				4.71908 2.87846 -100,
				4.71908 2.87846 -50,
				4.71908 2.87846 -42.5575,
				19.5677 16.2306 -50,
				500 448.245 -290.806,
			]
		}
		coordIndex [
			0, 1, 2, 3, 4, -1
		]
	}
}
#---------- POLYLINE
Shape {
	appearance Appearance {
		material Material {
			diffuseColor 0 1 0
			emissiveColor 0 1 0
		}
	}
	geometry IndexedLineSet {
		coord Coordinate {
			point [
				9.40398 7.71473 -100,
				9.40398 7.71473 -50,
				9.40398 7.71473 -5.48983,
				43.4304 -23.83 -50,
				387.439 -342.748 -500,
			]
		}
		coordIndex [
			0, 1, 2, 3, 4, -1
		]
	}
}
#---------- POLYLINE
Shape {
	appearance Appearance {
		material Material {
			diffuseColor 0 1 0
			emissiveColor 0 1 0
		}
	}
	geometry IndexedLineSet {
		coord Coordinate {
			point [
				6.30253 -18.3726 -100,
				6.30253 -18.3726 -50,
				6.30253 -18.3726 50,
				6.30253 -18.3726 500,
			]
		}
		coordIndex [
			0, 1, 2, 3, -1
		]
	}
}
#---------- POLYLINE
Shape {
	appearance Appearance {
		material Material {
			diffuseColor 0 1 0
			emissiveColor 0 1 0
		}
	}
	geometry IndexedLineSet {
		coord Coordinate {
			point [
				-12.7379 -6.47757 -100,
				-12.7379 -6.47757 -50,
				-12.7379 -6.47757 45.4933,
				-42.3472 -50 40.9676,
				-348.493 -500 -5.8261,
			]
		}
		coordIndex [
			0, 1, 2, 3, 4, -1
		]
	}
}
#---------- POLYLINE
Shape {
	appearance Appearance {
		material Material {
			diffuseColor 0 1 0
			emissiveColor 0 1 0
		}
	}
	geometry IndexedLineSet {
		coord Coordinate {
			point [
				11.5466 -8.2936 -100,
				11.5466 -8.2936 -50,
				11.5466 -8.2936 -20.1626,
				5.31299 -5.55496 -23.1849,
				-11.2711 50 -33.5666,
				-145.603 500 -117.659,
			]
		}
		coordIndex [
			0, 1, 2, 3, 4, 5, -1
		]
	}
}
#---------- POLYLINE
Shape {
	appearance Appearance {
		material Material {
			diffuseColor 0 1 0
			emissiveColor 0 1 0
		}
	}
	geometry IndexedLineSet {
		coord Coordinate {
			point [
				1.82062 3.29552 -100,
				1.82062 3.29552 -50,
				1.82062 3.29552 -40.0189,
				3.07702 -2.19372 -43.2681,
				26.4269 -21.6206 -50,
				500 -415.631 -186.534,
			]
		}
		coordIndex [
			0, 1, 2, 3, 4, 5, -1
		]
	}
}
#---------- POLYLINE
Shape {
	appearance Appearance {
		material Material {
			diffuseColor 0 1 0
			emissiveColor 0 1 0
		}
	}
	geometry IndexedLineSet {
		coord Coordinate {
			point [
				5.27878 -8.09009 -100,
				5.27878 -8.09009 -50,
				5.27878 -8.09009 -5.03201,
				17.8067 7.03982 4.32323,
				22.987 -44.1791 -0.214744,
				50 -29.6603 7.51783,
				500 212.203 136.332,
			]
		}
		coordIndex [
			0, 1, 2, 3, 4, 5, 6, -1
		]
	}
}
#---------- POLYLINE
Shape {
	appearance Appearance {
		material Material {
			diffuseColor 0 1 0
			emissiveColor 0 1 0
		}
	}
	geometry IndexedLineSet {
		coord Coordinate {
			point [
				0.543935 17.0333 -100,
				0.543935 17.0333 -50,
				0.543935 17.0333 24.3738,
				0.60356 16.0681 27.328,
				35.1679 -20.0795 50,
				494.068 -500 351.009,
			]
		}
		coordIndex [
			0, 1, 2, 3, 4, 5, -1
		]
	}
}
#---------- POLYLINE
Shape {
	appearance Appearance {
		material Material {
			diffuseColor 0 1 0
			emissiveColor 0 1 0
		}
	}
	geometry IndexedLineSet {
		coord Coordinate {
			point [
				7.99185 -0.613218 -100,
				7.99185 -0.613218 -50,
				7.99185 -0.613218 50,
				7.99185 -0.613218 500,
			]
		}
		coordIndex [
			0, 1, 2, 3, -1
		]
	}
}
#---------- POLYLINE
Shape {
	appearance Appearance {
		material Material {
			diffuseColor 0 1 0
			emissiveColor 0 1 0
		}
	}
	geometry IndexedLineSet {
		coord Coordinate {
			point [
				17.2687 -4.06423 -100,
				17.2687 -4.06423 -50,
				17.2687 -4.06423 50,
				17.2687 -4.06423 500,
			]
		}
		coordIndex [
			0, 1, 2, 3, -1
		]
	}
}
#---------- POLYLINE
Shape {
	appearance Appearance {
		material Material {
			diffuseColor 0 1 0
			emissiveColor 0 1 0
		}
	}
	geometry IndexedLineSet {
		coord Coordinate {
			point [
				15.9513 11.5245 -100,
				15.9513 11.5245 -50,
				15.9513 11.5245 -4.65238,
				20.8274 8.59519 50,
				60.977 -15.5244 500,
			]
		}
		coordIndex [
			0, 1, 2, 3, 4, -1
		]
	}
}
#---------- POLYLINE
Shape {
	appearance Appearance {
		material Material {
			diffuseColor 0 1 0
			emissiveColor 0 1 0
		}
	}
	geometry IndexedLineSet {
		coord Coordinate {
			point [
				-14.4715 5.92932 -100,
				-14.4715 5.92932 -50,
				-14.4715 5.92932 37.9439,
				-3.91358 3.92065 50,
				390.163 -71.0539 500,
			]
		}
		coordIndex [
			0, 1, 2, 3, 4, -1
		]
	}
}
#End of file.
