#VRML V2.0 utf8
# Generated by VRML 2.0 driver of GEANT4


#---------- CAMERA
Viewpoint {
	position 0 0 1732.05
}

#---------- SOLID: world:0
	Shape {
		appearance Appearance {
			material Material {
				diffuseColor 1 1 1
				transparency 0.7
			}
		}
		geometry IndexedFaceSet {
			coord Coordinate {
				point [
					-500 -500 -500,
					500 -500 -500,
					500 500 -500,
					-500 500 -500,
					-500 -500 500,
					500 -500 500,
					500 500 500,
					-500 500 500,
				]
			}
			coordIndex [
				0, 3, 2, 1, -1,
				4, 7, 3, 0, -1,
				7, 6, 2, 3, -1,
				6, 5, 1, 2, -1,
				5, 4, 0, 1, -1,
				4, 5, 6, 7, -1,
			]
			solid FALSE
		}
	}
#---------- SOLID: water:0
	Shape {
		appearance Appearance {
			material Material {
				diffuseColor 0.2 0.5 1
				transparency 0.7
			}
		}
		geometry IndexedFaceSet {
			coord Coordinate {
				point [
					-50 -50 -50,
					50 -50 -50,
					50 50 -50,
					-50 50 -50,
					-50 -50 50,
					50 -50 50,
					50 50 50,
					-50 50 50,
				]
			}
			coordIndex [
				0, 3, 2, 1, -1,
				4, 7, 3, 0, -1,
				7, 6, 2, 3, -1,
				6, 5, 1, 2, -1,
				5, 4, 0, 1, -1,
				4, 5, 6, 7, -1,
			]
			solid FALSE
		}
	}
#---------- POLYLINE
Shape {
	appearance Appearance {
		material Material {
			diffuseColor 0 1 0
			emissiveColor 0 1 0
		}
	}
	geometry IndexedLineSet {
		coord Coordinate {
			point [
				0 0 -100,
				0 0 -50,
				0 0 50,
				0 0 500,
			]
		}
		coordIndex [
			0, 1, 2, 3, -1
		]
	}
}
#---------- POLYLINE
Shape {
	appearance Appearance {
		material Material {
			diffuseColor 0 1 0
			emissiveColor 0 1 0
		}
	}
	geometry IndexedLineSet {
		coord Coordinate {
			point [
				0 0 -100,
				0 0 -50,
				0 0 0.167114,
				15.8487 -25.8192 24.4228,
				20.0167 -30.123 30.6805,
				35.4556 -50 30.001,
				384.982 -500 14.6181,
			]
		}
		coordIndex [
			0, 1, 2, 3, 4, 5, 6, -1
		]
	}
}
#---------- POLYLINE
Shape {
	appearance Appearance {
		material Material {
			diffuseColor 0 1 0
			emissiveColor 0 1 0
		}
	}
	geometry IndexedLineSet {
		coord Coordinate {
			point [
				0 0 -100,
				0 0 -50,
				0 0 -38.6688,
				19.229 50 44.8339,
				124.045 322.546 500,
			]
		}
		coordIndex [
			0, 1, 2, 3, 4, -1
		]
	}
}
#---------- POLYLINE
Shape {
	appearance Appearance {
		material Material {
			diffuseColor 0 1 0
			emissiveColor 0 1 0
		}
	}
	geometry IndexedLineSet {
		coord Coordinate {
			point [
				0 0 -100,
				0 0 -50,
				0 0 -45.5508,
				8.93312 0.0135761 -50,
				500 0.759877 -294.579,
			]
		}
		coordIndex [
			0, 1, 2, 3, 4, -1
		]
	}
}
#---------- POLYLINE
Shape {
	appearance Appearance {
		material Material {
			diffuseColor 0 1 0
			emissiveColor 0 1 0
		}
	}
	geometry IndexedLineSet {
		coord Coordinate {
			point [
				0 0 -100,
				0 0 -50,
				0 0 50,
				0 0 500,
			]
		}
		coordIndex [
			0, 1, 2, 3, -1
		]
	}
}
#---------- POLYLINE
Shape {
	appearance Appearance {
		material Material {
			diffuseColor 0 1 0
			emissiveColor 0 1 0
		}
	}
	geometry IndexedLineSet {
		coord Coordinate {
			point [
				0 0 -100,
				0 0 -50,
				0 0 50,
				0 0 500,
			]
		}
		coordIndex [
			0, 1, 2, 3, -1
		]
	}
}
#---------- POLYLINE
Shape {
	appearance Appearance {
		material Material {
			diffuseColor 0 1 0
			emissiveColor 0 1 0
		}
	}
	geometry IndexedLineSet {
		coord Coordinate {
			point [
				0 0 -100,
				0 0 -50,
				0 0 31.3339,
				8.93234 1.87568 27.2955,
				-21.39 -50 35.545,
				-284.424 -500 107.106,
			]
		}
		coordIndex [
			0, 1, 2, 3, 4, 5, -1
		]
	}
}
#---------- POLYLINE
Shape {
	appearance Appearance {
		material Material {
			diffuseColor 0 1 0
			emissiveColor 0 1 0
		}
	}
	geometry IndexedLineSet {
		coord Coordinate {
			point [
				0 0 -100,
				0 0 -50,
				0 0 -5.08204,
				-1.09155 4.36021 1.18505,
				-6.173 42.6103 50,
				-53.0163 395.218 500,
			]
		}
		coordIndex [
			0, 1, 2, 3, 4, 5, -1
		]
	}
}
#---------- POLYLINE
Shape {
	appearance Appearance {
		material Material {
			diffuseColor 0 1 0
			emissiveColor 0 1 0
		}
	}
	geometry IndexedLineSet {
		coord Coordinate {
			point [
				0 0 -100,
				0 0 -50,
				0 0 13.6832,
				13.7391 12.7802 50,
				183.98 171.139 500,
			]
		}
		coordIndex [
			0, 1, 2, 3, 4, -1
		]
	}
}
#---------- POLYLINE
Shape {
	appearance Appearance {
		material Material {
			diffuseColor 0 1 0
			emissiveColor 0 1 0
		}
	}
	geometry IndexedLineSet {
		coord Coordinate {
			point [
				0 0 -100,
				0 0 -50,
				0 0 -25.7527,
				30.5487 39.8304 -50,
				383.485 500 -330.135,
			]
		}
		coordIndex [
			0, 1, 2, 3, 4, -1
		]
	}
}
#---------- POLYLINE
Shape {
	appearance Appearance {
		material Material {
			diffuseColor 0 1 0
			emissiveColor 0 1 0
		}
	}
	geometry IndexedLineSet {
		coord Coordinate {
			point [
				0 0 -100,
				0 0 -50,
				0 0 7.69627,
				21.9307 -50 17.6538,
				219.307 -500 107.272,
			]
		}
		coordIndex [
			0, 1, 2, 3, 4, -1
		]
	}
}
#---------- POLYLINE
Shape {
	appearance Appearance {
		material Material {
			diffuseColor 0 1 0
			emissiveColor 0 1 0
		}
	}
	geometry IndexedLineSet {
		coord Coordinate {
			point [
				0 0 -100,
				0 0 -50,
				0 0 19.7637,
				-50 -39.9658 -2.32303,
				-500 -399.658 -201.103,
			]
		}
		coordIndex [
			0, 1, 2, 3, 4, -1
		]
	}
}
#---------- POLYLINE
Shape {
	appearance Appearance {
		material Material {
			diffuseColor 0 1 0
			emissiveColor 0 1 0
		}
	}
	geometry IndexedLineSet {
		coord Coordinate {
			point [
				0 0 -100,
				0 0 -50,
				0 0 50,
				0 0 500,
			]
		}
		coordIndex [
			0, 1, 2, 3, -1
		]
	}
}
#---------- POLYLINE
Shape {
	appearance Appearance {
		material Material {
			diffuseColor 0 1 0
			emissiveColor 0 1 0
		}
	}
	geometry IndexedLineSet {
		coord Coordinate {
			point [
				0 0 -100,
				0 0 -50,
				0 0 50,
				0 0 500,
			]
		}
		coordIndex [
			0, 1, 2, 3, -1
		]
	}
}
#---------- POLYLINE
Shape {
	appearance Appearance {
		material Material {
			diffuseColor 0 1 0
			emissiveColor 0 1 0
		}
	}
	geometry IndexedLineSet {
		coord Coordinate {
			point [
				0 0 -100,
				0 0 -50,
				0 0 29.5723,
				5.99638 13.4134 50,
				138.091 308.896 500,
			]
		}
		coordIndex [
			0, 1, 2, 3, 4, -1
		]
	}
}
#---------- POLYLINE
Shape {
	appearance Appearance {
		material Material {
			diffuseColor 0 1 0
			emissiveColor 0 1 0
		}
	}
	geometry IndexedLineSet {
		coord Coordinate {
			point [
				0 0 -100,
				0 0 -50,
				0 0 50,
				0 0 500,
			]
		}
		coordIndex [
			0, 1, 2, 3, -1
		]
	}
}
#---------- POLYLINE
Shape {
	appearance Appearance {
		material Material {
			diffuseColor 0 1 0
			emissiveColor 0 1 0
		}
	}
	geometry IndexedLineSet {
		coord Coordinate {
			point [
				0 0 -100,
				0 0 -50,
				0 0 -7.73388,
				16.0965 -4.59397 50,
				141.559 -40.4012 500,
			]
		}
		coordIndex [
			0, 1, 2, 3, 4, -1
		]
	}
}
#---------- POLYLINE
Shape {
	appearance Appearance {
		material Material {
			diffuseColor 0 1 0
			emissiveColor 0 1 0
		}
	}
	geometry IndexedLineSet {
		coord Coordinate {
			point [
				0 0 -100,
				0 0 -50,
				0 0 50,
				0 0 500,
			]
		}
		coordIndex [
			0, 1, 2, 3, -1
		]
	}
}
#---------- POLYLINE
Shape {
	appearance Appearance {
		material Material {
			diffuseColor 0 1 0
			emissiveColor 0 1 0
		}
	}
	geometry IndexedLineSet {
		coord Coordinate {
			point [
				0 0 -100,
				0 0 -50,
				0 0 -8.91056,
				50 -7.11183 36.0843,
				500 -71.1183 441.038,
			]
		}
		coordIndex [
			0, 1, 2, 3, 4, -1
		]
	}
}
#---------- POLYLINE
Shape {
	appearance Appearance {
		material Material {
			diffuseColor 0 1 0
			emissiveColor 0 1 0
		}
	}
	geometry IndexedLineSet {
		coord Coordinate {
			point [
				0 0 -100,
				0 0 -50,
				0 0 -49.7088,
				-0.820312 -6.06206 -33.594,
				-16.7501 1.1677 -50,
				-453.687 199.472 -500,
			]
		}
		coordIndex [
			0, 1, 2, 3, 4, 5, -1
		]
	}
}
#---------- POLYLINE
Shape {
	appearance Appearance {
		material Material {
			diffuseColor 0 1 0
			emissiveColor 0 1 0
		}
	}
	geometry IndexedLineSet {
		coord Coordinate {
			point [
				0 0 -100,
				0 0 -50,
				0 0 27.8636,
				11.136 -15.7261 38.7177,
				10.4374 44.7688 -50,
				6.89406 351.615 -500,
			]
		}
		coordIndex [
			0, 1, 2, 3, 4, 5, -1
		]
	}
}
#---------- POLYLINE
Shape {
	appearance Appearance {
		material Material {
			diffuseColor 0 1 0
			emissiveColor 0 1 0
		}
	}
	geometry IndexedLineSet {
		coord Coordinate {
			point [
				0 0 -100,
				0 0 -50,
				0 0 50,
				0 0 500,
			]
		}
		coordIndex [
			0, 1, 2, 3, -1
		]
	}
}
#---------- POLYLINE
Shape {
	appearance Appearance {
		material Material {
			diffuseColor 0 1 0
			emissiveColor 0 1 0
		}
	}
	geometry IndexedLineSet {
		coord Coordinate {
			point [
				0 0 -100,
				0 0 -50,
				0 0 -20.6968,
				43.1348 -50 32.5639,
				421.703 -488.819 500,
			]
		}
		coordIndex [
			0, 1, 2, 3, 4, -1
		]
	}
}
#---------- POLYLINE
Shape {
	appearance Appearance {
		material Material {
			diffuseColor 0 1 0
			emissiveColor 0 1 0
		}
	}
	geometry IndexedLineSet {
		coord Coordinate {
			point [
				0 0 -100,
				0 0 -50,
				0 0 -28.2278,
				2.32413 0.887288 -17.7846,
				-22.644 8.81914 -7.36317,
				-39.6617 12.052 -1.01639,
				-50 32.3583 18.3335,
				-288.084 500 463.948,
			]
		}
		coordIndex [
			0, 1, 2, 3, 4, 5, 6, 7, -1
		]
	}
}
#---------- POLYLINE
Shape {
	appearance Appearance {
		material Material {
			diffuseColor 0 1 0
			emissiveColor 0 1 0
		}
	}
	geometry IndexedLineSet {
		coord Coordinate {
			point [
				0 0 -100,
				0 0 -50,
				0 0 33.6803,
				20.0034 -14.3226 50,
				500 -358.005 441.605,
			]
		}
		coordIndex [
			0, 1, 2, 3, 4, -1
		]
	}
}
#---------- POLYLINE
Shape {
	appearance Appearance {
		material Material {
			diffuseColor 0 1 0
			emissiveColor 0 1 0
		}
	}
	geometry IndexedLineSet {
		coord Coordinate {
			point [
				0 0 -100,
				0 0 -50,
				0 0 -41.787,
				4.24553 6.29269 -38.3921,
				24.5925 22.708 -20.4964,
				31.5968 24.4286 -21.9261,
				-30.519 14.091 -40.3908,
				-23.0592 8.62447 -50,
				326.283 -247.376 -500,
			]
		}
		coordIndex [
			0, 1, 2, 3, 4, 5, 6, 7, 8, -1
		]
	}
}
#---------- POLYLINE
Shape {
	appearance Appearance {
		material Material {
			diffuseColor 0 1 0
			emissiveColor 0 1 0
		}
	}
	geometry IndexedLineSet {
		coord Coordinate {
			point [
				0 0 -100,
				0 0 -50,
				0 0 -44.057,
				-40.0589 19.416 50,
				-231.714 112.309 500,
			]
		}
		coordIndex [
			0, 1, 2, 3, 4, -1
		]
	}
}
#---------- POLYLINE
Shape {
	appearance Appearance {
		material Material {
			diffuseColor 0 1 0
			emissiveColor 0 1 0
		}
	}
	geometry IndexedLineSet {
		coord Coordinate {
			point [
				0 0 -100,
				0 0 -50,
				0 0 -16.5107,
				-6.50685 10.0215 37.9046,
				-6.82915 11.6917 41.2238,
				-6.4833 11.9801 41.5273,
				-4.74728 11.7759 50,
				87.4558 0.933233 500,
			]
		}
		coordIndex [
			0, 1, 2, 3, 4, 5, 6, 7, -1
		]
	}
}
#---------- POLYLINE
Shape {
	appearance Appearance {
		material Material {
			diffuseColor 0 1 0
			emissiveColor 0 1 0
		}
	}
	geometry IndexedLineSet {
		coord Coordinate {
			point [
				0 0 -100,
				0 0 -50,
				0 0 -25.1534,
				50 -40.9753 28.8682,
				209.389 -171.596 201.078,
				500 79.867 183.089,
			]
		}
		coordIndex [
			0, 1, 2, 3, 4, 5, -1
		]
	}
}
#---------- POLYLINE
Shape {
	appearance Appearance {
		material Material {
			diffuseColor 1 0 0
			emissiveColor 1 0 0
		}
	}
	geometry IndexedLineSet {
		coord Coordinate {
			point [
				209.389 -171.596 201.078,
				215.448 -194.326 220.537,
				220.469 -215.028 238.759,
				227 -222.701 245.588,
				227.367 -223.129 246.048,
				227.478 -223.256 246.185,
				227.49 -223.269 246.199,
				227.535 -223.323 246.258,
				236.591 -236.464 263.041,
				241.457 -242.927 268.257,
				249.052 -258.533 276.151,
				258.501 -271.417 284.842,
				264.207 -278.562 288.589,
				266.231 -284.016 291.505,
				281.158 -307.993 314.295,
				280.93 -309.094 315.283,
				278.937 -312.681 320.152,
				276.127 -315.729 324.723,
				272.812 -328.922 333.671,
				266.125 -339.93 337.065,
				260.619 -343.256 335.832,
				262.292 -340.858 330.929,
				264.119 -339.543 326.855,
				266.338 -339.703 319.648,
				265.297 -341.627 311.982,
				264.425 -348.314 310.339,
				264.173 -348.579 310.3,
				260.435 -352.534 309.414,
				256.596 -355.572 308.292,
				253.316 -358.247 307.979,
				252.988 -361.016 306.66,
				252.339 -361.122 304.045,
				253.448 -361.403 302.262,
				254.345 -360.929 300.691,
				255.079 -361.489 299.479,
				255.449 -361.044 298.623,
				255.629 -360.661 297.801,
				255.937 -360.535 297.136,
				256.266 -360.577 296.583,
				256.173 -360.641 296.047,
				256.365 -360.544 295.618,
				256.655 -360.659 295.343,
				256.757 -360.816 295.088,
				256.835 -361.037 294.968,
				256.681 -361.203 295.018,
				256.472 -361.188 295.078,
				256.518 -361.113 294.905,
				256.576 -360.991 294.803,
				256.688 -360.904 294.864,
				256.812 -360.835 294.873,
				256.906 -360.759 294.834,
				256.991 -360.717 294.833,
				256.994 -360.628 294.832,
				256.988 -360.566 294.835,
				256.965 -360.532 294.799,
				256.924 -360.54 294.816,
				256.896 -360.548 294.838,
				256.867 -360.538 294.842,
				256.859 -360.547 294.844,
				256.858 -360.547 294.844,
			]
		}
		coordIndex [
			0, 1, 2, 3, 4, 5, 6, 7, 8, 9, 
			10, 11, 12, 13, 14, 15, 16, 17, 18, 19, 
			20, 21, 22, 23, 24, 25, 26, 27, 28, 29, 
			30, 31, 32, 33, 34, 35, 36, 37, 38, 39, 
			40, 41, 42, 43, 44, 45, 46, 47, 48, 49, 
			50, 51, 52, 53, 54, 55, 56, 57, 58, 59, -1
		]
	}
}
#---------- POLYLINE
Shape {
	appearance Appearance {
		material Material {
			diffuseColor 1 0 0
			emissiveColor 1 0 0
		}
	}
	geometry IndexedLineSet {
		coord Coordinate {
			point [
				266.338 -339.703 319.648,
				266.358 -339.691 319.642,
			]
		}
		coordIndex [
			0, 1, -1
		]
	}
}
#---------- POLYLINE
Shape {
	appearance Appearance {
		material Material {
			diffuseColor 1 0 0
			emissiveColor 1 0 0
		}
	}
	geometry IndexedLineSet {
		coord Coordinate {
			point [
				264.119 -339.543 326.855,
				264.09 -339.53 326.845,
				264.07 -339.51 326.845,
				264.07 -339.512 326.851,
				264.07 -339.514 326.852,
				264.071 -339.514 326.852,
			]
		}
		coordIndex [
			0, 1, 2, 3, 4, 5, -1
		]
	}
}
#---------- POLYLINE
Shape {
	appearance Appearance {
		material Material {
			diffuseColor 1 0 0
			emissiveColor 1 0 0
		}
	}
	geometry IndexedLineSet {
		coord Coordinate {
			point [
				260.619 -343.256 335.832,
				260.629 -343.286 335.821,
				260.661 -343.283 335.81,
				260.642 -343.305 335.807,
				260.628 -343.291 335.799,
				260.63 -343.286 335.791,
				260.64 -343.283 335.79,
				260.639 -343.282 335.785,
				260.639 -343.282 335.784,
			]
		}
		coordIndex [
			0, 1, 2, 3, 4, 5, 6, 7, 8, -1
		]
	}
}
#---------- POLYLINE
Shape {
	appearance Appearance {
		material Material {
			diffuseColor 1 0 0
			emissiveColor 1 0 0
		}
	}
	geometry IndexedLineSet {
		coord Coordinate {
			point [
				266.125 -339.93 337.065,
				266.131 -339.953 337.096,
				266.152 -339.938 337.112,
				266.158 -339.939 337.139,
				266.169 -339.943 337.132,
				266.17 -339.943 337.132,
			]
		}
		coordIndex [
			0, 1, 2, 3, 4, 5, -1
		]
	}
}
#---------- POLYLINE
Shape {
	appearance Appearance {
		material Material {
			diffuseColor 1 0 0
			emissiveColor 1 0 0
		}
	}
	geometry IndexedLineSet {
		coord Coordinate {
			point [
				272.812 -328.922 333.671,
				272.815 -328.915 333.7,
				272.824 -328.9 333.715,
			]
		}
		coordIndex [
			0, 1, 2, -1
		]
	}
}
#---------- POLYLINE
Shape {
	appearance Appearance {
		material Material {
			diffuseColor 1 0 0
			emissiveColor 1 0 0
		}
	}
	geometry IndexedLineSet {
		coord Coordinate {
			point [
				276.127 -315.729 324.723,
				276.01 -315.696 324.731,
				275.925 -315.672 324.749,
				275.928 -315.607 324.736,
				275.901 -315.594 324.741,
				275.894 -315.569 324.744,
				275.894 -315.568 324.744,
				275.894 -315.567 324.744,
			]
		}
		coordIndex [
			0, 1, 2, 3, 4, 5, 6, 7, -1
		]
	}
}
#---------- POLYLINE
Shape {
	appearance Appearance {
		material Material {
			diffuseColor 1 0 0
			emissiveColor 1 0 0
		}
	}
	geometry IndexedLineSet {
		coord Coordinate {
			point [
				280.93 -309.094 315.283,
				280.973 -309.12 315.281,
				281.007 -309.103 315.275,
				281.034 -309.092 315.266,
				281.043 -309.089 315.256,
				281.043 -309.089 315.249,
				281.044 -309.089 315.248,
			]
		}
		coordIndex [
			0, 1, 2, 3, 4, 5, 6, -1
		]
	}
}
#---------- POLYLINE
Shape {
	appearance Appearance {
		material Material {
			diffuseColor 1 0 0
			emissiveColor 1 0 0
		}
	}
	geometry IndexedLineSet {
		coord Coordinate {
			point [
				281.158 -307.993 314.295,
				281.181 -308.002 314.291,
				281.184 -308 314.288,
				281.184 -307.999 314.288,
			]
		}
		coordIndex [
			0, 1, 2, 3, -1
		]
	}
}
#---------- POLYLINE
Shape {
	appearance Appearance {
		material Material {
			diffuseColor 1 0 0
			emissiveColor 1 0 0
		}
	}
	geometry IndexedLineSet {
		coord Coordinate {
			point [
				266.231 -284.016 291.505,
				266.312 -283.918 291.556,
				266.327 -283.909 291.674,
				266.347 -283.81 291.674,
				266.349 -283.723 291.703,
				266.362 -283.64 291.705,
				266.385 -283.571 291.733,
				266.385 -283.518 291.745,
				266.389 -283.481 291.72,
				266.391 -283.476 291.726,
				266.39 -283.476 291.725,
			]
		}
		coordIndex [
			0, 1, 2, 3, 4, 5, 6, 7, 8, 9, 
			10, -1
		]
	}
}
#---------- POLYLINE
Shape {
	appearance Appearance {
		material Material {
			diffuseColor 1 0 0
			emissiveColor 1 0 0
		}
	}
	geometry IndexedLineSet {
		coord Coordinate {
			point [
				264.207 -278.562 288.589,
				264.244 -278.557 288.566,
				264.274 -278.537 288.564,
				264.296 -278.547 288.556,
			]
		}
		coordIndex [
			0, 1, 2, 3, -1
		]
	}
}
#---------- POLYLINE
Shape {
	appearance Appearance {
		material Material {
			diffuseColor 1 0 0
			emissiveColor 1 0 0
		}
	}
	geometry IndexedLineSet {
		coord Coordinate {
			point [
				241.457 -242.927 268.257,
				241.44 -242.948 268.249,
				241.464 -242.944 268.259,
				241.466 -242.945 268.268,
				241.465 -242.944 268.269,
				241.465 -242.944 268.269,
			]
		}
		coordIndex [
			0, 1, 2, 3, 4, 5, -1
		]
	}
}
#---------- POLYLINE
Shape {
	appearance Appearance {
		material Material {
			diffuseColor 1 0 0
			emissiveColor 1 0 0
		}
	}
	geometry IndexedLineSet {
		coord Coordinate {
			point [
				227.535 -223.323 246.258,
				227.578 -223.333 246.228,
				227.61 -223.346 246.198,
				227.619 -223.347 246.188,
				227.622 -223.346 246.188,
				227.621 -223.346 246.187,
			]
		}
		coordIndex [
			0, 1, 2, 3, 4, 5, -1
		]
	}
}
#---------- POLYLINE
Shape {
	appearance Appearance {
		material Material {
			diffuseColor 1 0 0
			emissiveColor 1 0 0
		}
	}
	geometry IndexedLineSet {
		coord Coordinate {
			point [
				227 -222.701 245.588,
				227.039 -222.706 245.552,
				227.07 -222.715 245.521,
				227.042 -222.707 245.496,
				227.021 -222.725 245.49,
				227.027 -222.732 245.478,
				227.029 -222.732 245.478,
				227.03 -222.732 245.479,
			]
		}
		coordIndex [
			0, 1, 2, 3, 4, 5, 6, 7, -1
		]
	}
}
#---------- POLYLINE
Shape {
	appearance Appearance {
		material Material {
			diffuseColor 0 1 0
			emissiveColor 0 1 0
		}
	}
	geometry IndexedLineSet {
		coord Coordinate {
			point [
				0 0 -100,
				0 0 -50,
				0 0 50,
				0 0 500,
			]
		}
		coordIndex [
			0, 1, 2, 3, -1
		]
	}
}
#---------- POLYLINE
Shape {
	appearance Appearance {
		material Material {
			diffuseColor 0 1 0
			emissiveColor 0 1 0
		}
	}
	geometry IndexedLineSet {
		coord Coordinate {
			point [
				0 0 -100,
				0 0 -50,
				0 0 15.6322,
				-17.2103 -7.77119 50,
				-242.556 -109.525 500,
			]
		}
		coordIndex [
			0, 1, 2, 3, 4, -1
		]
	}
}
#---------- POLYLINE
Shape {
	appearance Appearance {
		material Material {
			diffuseColor 0 1 0
			emissiveColor 0 1 0
		}
	}
	geometry IndexedLineSet {
		coord Coordinate {
			point [
				0 0 -100,
				0 0 -50,
				0 0 50,
				0 0 500,
			]
		}
		coordIndex [
			0, 1, 2, 3, -1
		]
	}
}
#---------- POLYLINE
Shape {
	appearance Appearance {
		material Material {
			diffuseColor 0 1 0
			emissiveColor 0 1 0
		}
	}
	geometry IndexedLineSet {
		coord Coordinate {
			point [
				0 0 -100,
				0 0 -50,
				0 0 -3.60329,
				10.1169 -25.1607 50,
				95.0484 -236.385 500,
			]
		}
		coordIndex [
			0, 1, 2, 3, 4, -1
		]
	}
}
#---------- POLYLINE
Shape {
	appearance Appearance {
		material Material {
			diffuseColor 0 1 0
			emissiveColor 0 1 0
		}
	}
	geometry IndexedLineSet {
		coord Coordinate {
			point [
				0 0 -100,
				0 0 -50,
				0 0 50,
				0 0 500,
			]
		}
		coordIndex [
			0, 1, 2, 3, -1
		]
	}
}
#---------- POLYLINE
Shape {
	appearance Appearance {
		material Material {
			diffuseColor 0 1 0
			emissiveColor 0 1 0
		}
	}
	geometry IndexedLineSet {
		coord Coordinate {
			point [
				0 0 -100,
				0 0 -50,
				0 0 -35.5156,
				11.2217 -4.64244 -34.91,
				9.49863 -7.84939 -35.0275,
				29.8163 21.2401 -10.4601,
				50 32.2372 3.99381,
				500 277.418 326.248,
			]
		}
		coordIndex [
			0, 1, 2, 3, 4, 5, 6, 7, -1
		]
	}
}
#---------- POLYLINE
Shape {
	appearance Appearance {
		material Material {
			diffuseColor 0 1 0
			emissiveColor 0 1 0
		}
	}
	geometry IndexedLineSet {
		coord Coordinate {
			point [
				0 0 -100,
				0 0 -50,
				0 0 50,
				0 0 500,
			]
		}
		coordIndex [
			0, 1, 2, 3, -1
		]
	}
}
#---------- POLYLINE
Shape {
	appearance Appearance {
		material Material {
			diffuseColor 0 1 0
			emissiveColor 0 1 0
		}
	}
	geometry IndexedLineSet {
		coord Coordinate {
			point [
				0 0 -100,
				0 0 -50,
				0 0 50,
				0 0 500,
			]
		}
		coordIndex [
			0, 1, 2, 3, -1
		]
	}
}
#---------- POLYLINE
Shape {
	appearance Appearance {
		material Material {
			diffuseColor 0 1 0
			emissiveColor 0 1 0
		}
	}
	geometry IndexedLineSet {
		coord Coordinate {
			point [
				0 0 -100,
				0 0 -50,
				0 0 50,
				0 0 500,
			]
		}
		coordIndex [
			0, 1, 2, 3, -1
		]
	}
}
#---------- POLYLINE
Shape {
	appearance Appearance {
		material Material {
			diffuseColor 0 1 0
			emissiveColor 0 1 0
		}
	}
	geometry IndexedLineSet {
		coord Coordinate {
			point [
				0 0 -100,
				0 0 -50,
				0 0 9.98429,
				-7.728 -6.69066 10.104,
				-32.9914 50 11.3247,
				-233.528 500 21.0145,
			]
		}
		coordIndex [
			0, 1, 2, 3, 4, 5, -1
		]
	}
}
#---------- POLYLINE
Shape {
	appearance Appearance {
		material Material {
			diffuseColor 0 1 0
			emissiveColor 0 1 0
		}
	}
	geometry IndexedLineSet {
		coord Coordinate {
			point [
				0 0 -100,
				0 0 -50,
				0 0 39.6981,
				41.9023 28.3323 50,
				500 338.076 162.625,
			]
		}
		coordIndex [
			0, 1, 2, 3, 4, -1
		]
	}
}
#---------- POLYLINE
Shape {
	appearance Appearance {
		material Material {
			diffuseColor 0 1 0
			emissiveColor 0 1 0
		}
	}
	geometry IndexedLineSet {
		coord Coordinate {
			point [
				0 0 -100,
				0 0 -50,
				0 0 50,
				0 0 500,
			]
		}
		coordIndex [
			0, 1, 2, 3, -1
		]
	}
}
#---------- POLYLINE
Shape {
	appearance Appearance {
		material Material {
			diffuseColor 0 1 0
			emissiveColor 0 1 0
		}
	}
	geometry IndexedLineSet {
		coord Coordinate {
			point [
				0 0 -100,
				0 0 -50,
				0 0 -13.6072,
				-17.7079 -3.37216 -8.94182,
				-28.9935 -1.29309 -10.9906,
				-33.5158 3.9821 -27.7053,
				-38.6725 7.07089 -50,
				-142.756 69.4156 -500,
			]
		}
		coordIndex [
			0, 1, 2, 3, 4, 5, 6, 7, -1
		]
	}
}
#---------- POLYLINE
Shape {
	appearance Appearance {
		material Material {
			diffuseColor 0 1 0
			emissiveColor 0 1 0
		}
	}
	geometry IndexedLineSet {
		coord Coordinate {
			point [
				0 0 -100,
				0 0 -50,
				0 0 28.2791,
				-14.542 -6.68154 25.7985,
				-19.2702 -4.98434 23.3219,
				-22.8865 27.2439 50,
				-75.9338 500 441.341,
			]
		}
		coordIndex [
			0, 1, 2, 3, 4, 5, 6, -1
		]
	}
}
#---------- POLYLINE
Shape {
	appearance Appearance {
		material Material {
			diffuseColor 0 1 0
			emissiveColor 0 1 0
		}
	}
	geometry IndexedLineSet {
		coord Coordinate {
			point [
				0 0 -100,
				0 0 -50,
				0 0 22.0279,
				50 47.3706 26.7329,
				500 473.706 69.0774,
			]
		}
		coordIndex [
			0, 1, 2, 3, 4, -1
		]
	}
}
#---------- POLYLINE
Shape {
	appearance Appearance {
		material Material {
			diffuseColor 0 1 0
			emissiveColor 0 1 0
		}
	}
	geometry IndexedLineSet {
		coord Coordinate {
			point [
				0 0 -100,
				0 0 -50,
				0 0 50,
				0 0 500,
			]
		}
		coordIndex [
			0, 1, 2, 3, -1
		]
	}
}
#---------- POLYLINE
Shape {
	appearance Appearance {
		material Material {
			diffuseColor 0 1 0
			emissiveColor 0 1 0
		}
	}
	geometry IndexedLineSet {
		coord Coordinate {
			point [
				0 0 -100,
				0 0 -50,
				0 0 32.9302,
				-44.9381 2.10312 50,
				-500 23.4002 222.856,
			]
		}
		coordIndex [
			0, 1, 2, 3, 4, -1
		]
	}
}
#---------- POLYLINE
Shape {
	appearance Appearance {
		material Material {
			diffuseColor 0 1 0
			emissiveColor 0 1 0
		}
	}
	geometry IndexedLineSet {
		coord Coordinate {
			point [
				0 0 -100,
				0 0 -50,
				0 0 35.8618,
				37.106 -24.5489 9.32065,
				50 -21.5474 19.1332,
				500 83.205 361.592,
			]
		}
		coordIndex [
			0, 1, 2, 3, 4, 5, -1
		]
	}
}
#---------- POLYLINE
Shape {
	appearance Appearance {
		material Material {
			diffuseColor 0 1 0
			emissiveColor 0 1 0
		}
	}
	geometry IndexedLineSet {
		coord Coordinate {
			point [
				0 0 -100,
				0 0 -50,
				0 0 50,
				0 0 500,
			]
		}
		coordIndex [
			0, 1, 2, 3, -1
		]
	}
}
#---------- POLYLINE
Shape {
	appearance Appearance {
		material Material {
			diffuseColor 0 1 0
			emissiveColor 0 1 0
		}
	}
	geometry IndexedLineSet {
		coord Coordinate {
			point [
				0 0 -100,
				0 0 -50,
				0 0 -16.0512,
				50 26.3951 -18.0537,
				500 263.951 -36.0763,
			]
		}
		coordIndex [
			0, 1, 2, 3, 4, -1
		]
	}
}
#---------- POLYLINE
Shape {
	appearance Appearance {
		material Material {
			diffuseColor 0 1 0
			emissiveColor 0 1 0
		}
	}
	geometry IndexedLineSet {
		coord Coordinate {
			point [
				0 0 -100,
				0 0 -50,
				0 0 -8.99976,
				3.54057 4.04748 50,
				30.545 34.9182 500,
			]
		}
		coordIndex [
			0, 1, 2, 3, 4, -1
		]
	}
}
#---------- POLYLINE
Shape {
	appearance Appearance {
		material Material {
			diffuseColor 0 1 0
			emissiveColor 0 1 0
		}
	}
	geometry IndexedLineSet {
		coord Coordinate {
			point [
				0 0 -100,
				0 0 -50,
				0 0 4.0187,
				-5.20675 -37.5416 -50,
				-48.5813 -350.28 -500,
			]
		}
		coordIndex [
			0, 1, 2, 3, 4, -1
		]
	}
}
#---------- POLYLINE
Shape {
	appearance Appearance {
		material Material {
			diffuseColor 0 1 0
			emissiveColor 0 1 0
		}
	}
	geometry IndexedLineSet {
		coord Coordinate {
			point [
				0 0 -100,
				0 0 -50,
				0 0 11.8096,
				11.4447 3.84769 50,
				146.299 49.1852 500,
			]
		}
		coordIndex [
			0, 1, 2, 3, 4, -1
		]
	}
}
#---------- POLYLINE
Shape {
	appearance Appearance {
		material Material {
			diffuseColor 0 1 0
			emissiveColor 0 1 0
		}
	}
	geometry IndexedLineSet {
		coord Coordinate {
			point [
				0 0 -100,
				0 0 -50,
				0 0 -18.5328,
				-22.5184 2.13706 23.7592,
				-14.5006 34.0107 -21.2858,
				-11.2646 50 -24.5494,
				79.8077 500 -116.4,
			]
		}
		coordIndex [
			0, 1, 2, 3, 4, 5, 6, -1
		]
	}
}
#---------- POLYLINE
Shape {
	appearance Appearance {
		material Material {
			diffuseColor 0 1 0
			emissiveColor 0 1 0
		}
	}
	geometry IndexedLineSet {
		coord Coordinate {
			point [
				0 0 -100,
				0 0 -50,
				0 0 50,
				0 0 500,
			]
		}
		coordIndex [
			0, 1, 2, 3, -1
		]
	}
}
#---------- POLYLINE
Shape {
	appearance Appearance {
		material Material {
			diffuseColor 0 1 0
			emissiveColor 0 1 0
		}
	}
	geometry IndexedLineSet {
		coord Coordinate {
			point [
				0 0 -100,
				0 0 -50,
				0 0 42.0537,
				-6.22913 -0.233277 50,
				-358.984 -13.4437 500,
			]
		}
		coordIndex [
			0, 1, 2, 3, 4, -1
		]
	}
}
#---------- POLYLINE
Shape {
	appearance Appearance {
		material Material {
			diffuseColor 0 1 0
			emissiveColor 0 1 0
		}
	}
	geometry IndexedLineSet {
		coord Coordinate {
			point [
				0 0 -100,
				0 0 -50,
				0 0 46.8896,
				-43.6486 50 1.60839,
				-304.302 348.581 -268.794,
				-354.14 500 -256.378,
			]
		}
		coordIndex [
			0, 1, 2, 3, 4, 5, -1
		]
	}
}
#---------- POLYLINE
Shape {
	appearance Appearance {
		material Material {
			diffuseColor 1 0 0
			emissiveColor 1 0 0
		}
	}
	geometry IndexedLineSet {
		coord Coordinate {
			point [
				-304.302 348.581 -268.794,
				-304.918 348.054 -270.34,
				-304.864 348.323 -270.345,
				-304.727 349.156 -270.064,
				-304.226 349.71 -269.942,
				-303.922 350.112 -270.043,
				-303.641 350.4 -270.127,
				-303.368 350.451 -270.011,
				-303.136 350.399 -269.867,
				-302.959 350.321 -269.732,
				-302.798 350.189 -269.708,
				-302.705 350.061 -269.668,
				-302.588 350.016 -269.724,
				-302.55 350.116 -269.8,
				-302.515 350.204 -269.876,
				-302.453 350.155 -269.848,
				-302.413 350.096 -269.812,
				-302.414 350.084 -269.817,
				-302.443 350.063 -269.825,
				-302.443 350.063 -269.825,
			]
		}
		coordIndex [
			0, 1, 2, 3, 4, 5, 6, 7, 8, 9, 
			10, 11, 12, 13, 14, 15, 16, 17, 18, 19, -1
		]
	}
}
#---------- POLYLINE
Shape {
	appearance Appearance {
		material Material {
			diffuseColor 0 1 0
			emissiveColor 0 1 0
		}
	}
	geometry IndexedLineSet {
		coord Coordinate {
			point [
				0 0 -100,
				0 0 -50,
				0 0 50,
				0 0 500,
			]
		}
		coordIndex [
			0, 1, 2, 3, -1
		]
	}
}
#---------- POLYLINE
Shape {
	appearance Appearance {
		material Material {
			diffuseColor 0 1 0
			emissiveColor 0 1 0
		}
	}
	geometry IndexedLineSet {
		coord Coordinate {
			point [
				0 0 -100,
				0 0 -50,
				0 0 46.0357,
				2.4968 -2.41608 50,
				285.914 -276.671 500,
			]
		}
		coordIndex [
			0, 1, 2, 3, 4, -1
		]
	}
}
#---------- POLYLINE
Shape {
	appearance Appearance {
		material Material {
			diffuseColor 0 1 0
			emissiveColor 0 1 0
		}
	}
	geometry IndexedLineSet {
		coord Coordinate {
			point [
				0 0 -100,
				0 0 -50,
				0 0 22.7096,
				-37.7234 1.62668 50,
				-500 21.5607 384.427,
			]
		}
		coordIndex [
			0, 1, 2, 3, 4, -1
		]
	}
}
#---------- POLYLINE
Shape {
	appearance Appearance {
		material Material {
			diffuseColor 0 1 0
			emissiveColor 0 1 0
		}
	}
	geometry IndexedLineSet {
		coord Coordinate {
			point [
				0 0 -100,
				0 0 -50,
				0 0 -49.4308,
				-4.69619 -5.64202 -36.294,
				-0.0727623 -8.76931 -48.8666,
				1.66657 -9.97246 -50,
				500 -354.684 -374.727,
			]
		}
		coordIndex [
			0, 1, 2, 3, 4, 5, 6, -1
		]
	}
}
#---------- POLYLINE
Shape {
	appearance Appearance {
		material Material {
			diffuseColor 0 1 0
			emissiveColor 0 1 0
		}
	}
	geometry IndexedLineSet {
		coord Coordinate {
			point [
				0 0 -100,
				0 0 -50,
				0 0 -8.70557,
				7.31225 -3.49624 2.22601,
				-3.80339 -11.8984 50,
				-108.506 -91.0414 500,
			]
		}
		coordIndex [
			0, 1, 2, 3, 4, 5, -1
		]
	}
}
#---------- POLYLINE
Shape {
	appearance Appearance {
		material Material {
			diffuseColor 0 1 0
			emissiveColor 0 1 0
		}
	}
	geometry IndexedLineSet {
		coord Coordinate {
			point [
				0 0 -100,
				0 0 -50,
				0 0 42.3984,
				-2.68018 -1.11527 50,
				-161.341 -67.1367 500,
			]
		}
		coordIndex [
			0, 1, 2, 3, 4, -1
		]
	}
}
#---------- POLYLINE
Shape {
	appearance Appearance {
		material Material {
			diffuseColor 0 1 0
			emissiveColor 0 1 0
		}
	}
	geometry IndexedLineSet {
		coord Coordinate {
			point [
				0 0 -100,
				0 0 -50,
				0 0 18.2935,
				38.307 31.8722 45.1083,
				37.3162 44.8383 50,
				2.53752 500 221.719,
			]
		}
		coordIndex [
			0, 1, 2, 3, 4, 5, -1
		]
	}
}
#---------- POLYLINE
Shape {
	appearance Appearance {
		material Material {
			diffuseColor 0 1 0
			emissiveColor 0 1 0
		}
	}
	geometry IndexedLineSet {
		coord Coordinate {
			point [
				0 0 -100,
				0 0 -50,
				0 0 50,
				0 0 500,
			]
		}
		coordIndex [
			0, 1, 2, 3, -1
		]
	}
}
#---------- POLYLINE
Shape {
	appearance Appearance {
		material Material {
			diffuseColor 0 1 0
			emissiveColor 0 1 0
		}
	}
	geometry IndexedLineSet {
		coord Coordinate {
			point [
				0 0 -100,
				0 0 -50,
				0 0 -48.4947,
				19.8953 -43.6959 50,
				110.792 -243.332 500,
			]
		}
		coordIndex [
			0, 1, 2, 3, 4, -1
		]
	}
}
#---------- POLYLINE
Shape {
	appearance Appearance {
		material Material {
			diffuseColor 0 1 0
			emissiveColor 0 1 0
		}
	}
	geometry IndexedLineSet {
		coord Coordinate {
			point [
				0 0 -100,
				0 0 -50,
				0 0 50,
				0 0 500,
			]
		}
		coordIndex [
			0, 1, 2, 3, -1
		]
	}
}
#---------- POLYLINE
Shape {
	appearance Appearance {
		material Material {
			diffuseColor 0 1 0
			emissiveColor 0 1 0
		}
	}
	geometry IndexedLineSet {
		coord Coordinate {
			point [
				0 0 -100,
				0 0 -50,
				0 0 50,
				0 0 500,
			]
		}
		coordIndex [
			0, 1, 2, 3, -1
		]
	}
}
#---------- POLYLINE
Shape {
	appearance Appearance {
		material Material {
			diffuseColor 0 1 0
			emissiveColor 0 1 0
		}
	}
	geometry IndexedLineSet {
		coord Coordinate {
			point [
				0 0 -100,
				0 0 -50,
				0 0 50,
				0 0 500,
			]
		}
		coordIndex [
			0, 1, 2, 3, -1
		]
	}
}
#---------- POLYLINE
Shape {
	appearance Appearance {
		material Material {
			diffuseColor 0 1 0
			emissiveColor 0 1 0
		}
	}
	geometry IndexedLineSet {
		coord Coordinate {
			point [
				0 0 -100,
				0 0 -50,
				0 0 50,
				0 0 500,
			]
		}
		coordIndex [
			0, 1, 2, 3, -1
		]
	}
}
#---------- POLYLINE
Shape {
	appearance Appearance {
		material Material {
			diffuseColor 0 1 0
			emissiveColor 0 1 0
		}
	}
	geometry IndexedLineSet {
		coord Coordinate {
			point [
				0 0 -100,
				0 0 -50,
				0 0 50,
				0 0 500,
			]
		}
		coordIndex [
			0, 1, 2, 3, -1
		]
	}
}
#---------- POLYLINE
Shape {
	appearance Appearance {
		material Material {
			diffuseColor 0 1 0
			emissiveColor 0 1 0
		}
	}
	geometry IndexedLineSet {
		coord Coordinate {
			point [
				0 0 -100,
				0 0 -50,
				0 0 50,
				0 0 500,
			]
		}
		coordIndex [
			0, 1, 2, 3, -1
		]
	}
}
#---------- POLYLINE
Shape {
	appearance Appearance {
		material Material {
			diffuseColor 0 1 0
			emissiveColor 0 1 0
		}
	}
	geometry IndexedLineSet {
		coord Coordinate {
			point [
				0 0 -100,
				0 0 -50,
				0 0 -23.8088,
				-0.511008 0.961798 -21.1488,
				-17.0449 13.2139 -30.2316,
				-15.1329 12.4789 -30.6549,
				-24.7229 9.38136 -45.006,
				-28.5629 5.9194 -50,
				-374.577 -306.034 -500,
			]
		}
		coordIndex [
			0, 1, 2, 3, 4, 5, 6, 7, 8, -1
		]
	}
}
#---------- POLYLINE
Shape {
	appearance Appearance {
		material Material {
			diffuseColor 0 1 0
			emissiveColor 0 1 0
		}
	}
	geometry IndexedLineSet {
		coord Coordinate {
			point [
				0 0 -100,
				0 0 -50,
				0 0 42.7378,
				33.9029 10.375 50,
				500 153.01 149.841,
			]
		}
		coordIndex [
			0, 1, 2, 3, 4, -1
		]
	}
}
#---------- POLYLINE
Shape {
	appearance Appearance {
		material Material {
			diffuseColor 0 1 0
			emissiveColor 0 1 0
		}
	}
	geometry IndexedLineSet {
		coord Coordinate {
			point [
				0 0 -100,
				0 0 -50,
				0 0 -13.3086,
				-50 -4.09296 9.07381,
				-500 -40.9296 210.516,
			]
		}
		coordIndex [
			0, 1, 2, 3, 4, -1
		]
	}
}
#---------- POLYLINE
Shape {
	appearance Appearance {
		material Material {
			diffuseColor 0 1 0
			emissiveColor 0 1 0
		}
	}
	geometry IndexedLineSet {
		coord Coordinate {
			point [
				0 0 -100,
				0 0 -50,
				0 0 0.856834,
				-2.98506 -50 -3.46238,
				-29.8506 -500 -42.3353,
			]
		}
		coordIndex [
			0, 1, 2, 3, 4, -1
		]
	}
}
#---------- POLYLINE
Shape {
	appearance Appearance {
		material Material {
			diffuseColor 0 1 0
			emissiveColor 0 1 0
		}
	}
	geometry IndexedLineSet {
		coord Coordinate {
			point [
				0 0 -100,
				0 0 -50,
				0 0 -49.6267,
				25.3239 43.0561 50,
				139.708 237.535 500,
			]
		}
		coordIndex [
			0, 1, 2, 3, 4, -1
		]
	}
}
#---------- POLYLINE
Shape {
	appearance Appearance {
		material Material {
			diffuseColor 0 1 0
			emissiveColor 0 1 0
		}
	}
	geometry IndexedLineSet {
		coord Coordinate {
			point [
				0 0 -100,
				0 0 -50,
				0 0 -33.1282,
				-4.586 -18.5492 -50,
				-123.617 -500 -487.911,
			]
		}
		coordIndex [
			0, 1, 2, 3, 4, -1
		]
	}
}
#---------- POLYLINE
Shape {
	appearance Appearance {
		material Material {
			diffuseColor 0 1 0
			emissiveColor 0 1 0
		}
	}
	geometry IndexedLineSet {
		coord Coordinate {
			point [
				0 0 -100,
				0 0 -50,
				0 0 -36.3559,
				50 31.8797 -41.5923,
				500 318.797 -88.7199,
			]
		}
		coordIndex [
			0, 1, 2, 3, 4, -1
		]
	}
}
#---------- POLYLINE
Shape {
	appearance Appearance {
		material Material {
			diffuseColor 0 1 0
			emissiveColor 0 1 0
		}
	}
	geometry IndexedLineSet {
		coord Coordinate {
			point [
				0 0 -100,
				0 0 -50,
				0 0 50,
				0 0 500,
			]
		}
		coordIndex [
			0, 1, 2, 3, -1
		]
	}
}
#---------- POLYLINE
Shape {
	appearance Appearance {
		material Material {
			diffuseColor 0 1 0
			emissiveColor 0 1 0
		}
	}
	geometry IndexedLineSet {
		coord Coordinate {
			point [
				0 0 -100,
				0 0 -50,
				0 0 4.61079,
				-11.1098 50 34.1489,
				-111.098 500 299.992,
			]
		}
		coordIndex [
			0, 1, 2, 3, 4, -1
		]
	}
}
#---------- POLYLINE
Shape {
	appearance Appearance {
		material Material {
			diffuseColor 0 1 0
			emissiveColor 0 1 0
		}
	}
	geometry IndexedLineSet {
		coord Coordinate {
			point [
				0 0 -100,
				0 0 -50,
				0 0 50,
				0 0 500,
			]
		}
		coordIndex [
			0, 1, 2, 3, -1
		]
	}
}
#---------- POLYLINE
Shape {
	appearance Appearance {
		material Material {
			diffuseColor 0 1 0
			emissiveColor 0 1 0
		}
	}
	geometry IndexedLineSet {
		coord Coordinate {
			point [
				0 0 -100,
				0 0 -50,
				0 0 50,
				0 0 500,
			]
		}
		coordIndex [
			0, 1, 2, 3, -1
		]
	}
}
#---------- POLYLINE
Shape {
	appearance Appearance {
		material Material {
			diffuseColor 0 1 0
			emissiveColor 0 1 0
		}
	}
	geometry IndexedLineSet {
		coord Coordinate {
			point [
				0 0 -100,
				0 0 -50,
				0 0 40.2594,
				0.501768 2.80427 50,
				23.6828 132.357 500,
			]
		}
		coordIndex [
			0, 1, 2, 3, 4, -1
		]
	}
}
#---------- POLYLINE
Shape {
	appearance Appearance {
		material Material {
			diffuseColor 0 1 0
			emissiveColor 0 1 0
		}
	}
	geometry IndexedLineSet {
		coord Coordinate {
			point [
				0 0 -100,
				0 0 -50,
				0 0 49.844,
				0.0829884 0.132112 50,
				239.523 381.305 500,
			]
		}
		coordIndex [
			0, 1, 2, 3, 4, -1
		]
	}
}
#---------- POLYLINE
Shape {
	appearance Appearance {
		material Material {
			diffuseColor 0 1 0
			emissiveColor 0 1 0
		}
	}
	geometry IndexedLineSet {
		coord Coordinate {
			point [
				0 0 -100,
				0 0 -50,
				0 0 -49.1945,
				-3.647 -10.6685 -38.7953,
				16.5502 -36.0008 -50,
				386.494 -500 -255.231,
			]
		}
		coordIndex [
			0, 1, 2, 3, 4, 5, -1
		]
	}
}
#---------- POLYLINE
Shape {
	appearance Appearance {
		material Material {
			diffuseColor 0 1 0
			emissiveColor 0 1 0
		}
	}
	geometry IndexedLineSet {
		coord Coordinate {
			point [
				0 0 -100,
				0 0 -50,
				0 0 50,
				0 0 500,
			]
		}
		coordIndex [
			0, 1, 2, 3, -1
		]
	}
}
#---------- POLYLINE
Shape {
	appearance Appearance {
		material Material {
			diffuseColor 0 1 0
			emissiveColor 0 1 0
		}
	}
	geometry IndexedLineSet {
		coord Coordinate {
			point [
				0 0 -100,
				0 0 -50,
				0 0 50,
				0 0 500,
			]
		}
		coordIndex [
			0, 1, 2, 3, -1
		]
	}
}
#---------- POLYLINE
Shape {
	appearance Appearance {
		material Material {
			diffuseColor 0 1 0
			emissiveColor 0 1 0
		}
	}
	geometry IndexedLineSet {
		coord Coordinate {
			point [
				0 0 -100,
				0 0 -50,
				0 0 -49.6993,
				-50 8.73014 -19.2281,
				-500 87.3014 255.012,
			]
		}
		coordIndex [
			0, 1, 2, 3, 4, -1
		]
	}
}
#---------- POLYLINE
Shape {
	appearance Appearance {
		material Material {
			diffuseColor 0 1 0
			emissiveColor 0 1 0
		}
	}
	geometry IndexedLineSet {
		coord Coordinate {
			point [
				0 0 -100,
				0 0 -50,
				0 0 -34.3047,
				35.9475 -5.76108 50,
				227.827 -36.5125 500,
			]
		}
		coordIndex [
			0, 1, 2, 3, 4, -1
		]
	}
}
#---------- POLYLINE
Shape {
	appearance Appearance {
		material Material {
			diffuseColor 0 1 0
			emissiveColor 0 1 0
		}
	}
	geometry IndexedLineSet {
		coord Coordinate {
			point [
				0 0 -100,
				0 0 -50,
				0 0 -33.6176,
				-14.5815 -35.9527 50,
				-93.0537 -229.438 500,
			]
		}
		coordIndex [
			0, 1, 2, 3, 4, -1
		]
	}
}
#---------- POLYLINE
Shape {
	appearance Appearance {
		material Material {
			diffuseColor 0 1 0
			emissiveColor 0 1 0
		}
	}
	geometry IndexedLineSet {
		coord Coordinate {
			point [
				0 0 -100,
				0 0 -50,
				0 0 50,
				0 0 500,
			]
		}
		coordIndex [
			0, 1, 2, 3, -1
		]
	}
}
#---------- POLYLINE
Shape {
	appearance Appearance {
		material Material {
			diffuseColor 0 1 0
			emissiveColor 0 1 0
		}
	}
	geometry IndexedLineSet {
		coord Coordinate {
			point [
				0 0 -100,
				0 0 -50,
				0 0 5.78778,
				-6.63934 50 -11.6555,
				-66.3934 500 -168.645,
			]
		}
		coordIndex [
			0, 1, 2, 3, 4, -1
		]
	}
}
#---------- POLYLINE
Shape {
	appearance Appearance {
		material Material {
			diffuseColor 0 1 0
			emissiveColor 0 1 0
		}
	}
	geometry IndexedLineSet {
		coord Coordinate {
			point [
				0 0 -100,
				0 0 -50,
				0 0 36.0889,
				-50 34.3704 9.71814,
				-500 343.704 -227.619,
			]
		}
		coordIndex [
			0, 1, 2, 3, 4, -1
		]
	}
}
#---------- POLYLINE
Shape {
	appearance Appearance {
		material Material {
			diffuseColor 0 1 0
			emissiveColor 0 1 0
		}
	}
	geometry IndexedLineSet {
		coord Coordinate {
			point [
				0 0 -100,
				0 0 -50,
				0 0 21.3418,
				-7.36662 3.44644 39.2799,
				35.5391 19.1303 24.6106,
				26.0738 31.6833 20.5575,
				26.9741 50 39.1859,
				49.0929 500 496.843,
			]
		}
		coordIndex [
			0, 1, 2, 3, 4, 5, 6, 7, -1
		]
	}
}
#---------- POLYLINE
Shape {
	appearance Appearance {
		material Material {
			diffuseColor 0 1 0
			emissiveColor 0 1 0
		}
	}
	geometry IndexedLineSet {
		coord Coordinate {
			point [
				0 0 -100,
				0 0 -50,
				0 0 -6.57867,
				-6.52392 -7.0146 -1.78943,
				50 37.3706 -45.4672,
				500 390.731 -393.196,
			]
		}
		coordIndex [
			0, 1, 2, 3, 4, 5, -1
		]
	}
}
#---------- POLYLINE
Shape {
	appearance Appearance {
		material Material {
			diffuseColor 0 1 0
			emissiveColor 0 1 0
		}
	}
	geometry IndexedLineSet {
		coord Coordinate {
			point [
				0 0 -100,
				0 0 -50,
				0 0 50,
				0 0 500,
			]
		}
		coordIndex [
			0, 1, 2, 3, -1
		]
	}
}
#---------- POLYLINE
Shape {
	appearance Appearance {
		material Material {
			diffuseColor 0 1 0
			emissiveColor 0 1 0
		}
	}
	geometry IndexedLineSet {
		coord Coordinate {
			point [
				0 0 -100,
				0 0 -50,
				0 0 -9.75039,
				-6.03427 -25.926 5.92582,
				-25.6833 -50 22.2474,
				-392.969 -500 327.337,
			]
		}
		coordIndex [
			0, 1, 2, 3, 4, 5, -1
		]
	}
}
#---------- POLYLINE
Shape {
	appearance Appearance {
		material Material {
			diffuseColor 0 1 0
			emissiveColor 0 1 0
		}
	}
	geometry IndexedLineSet {
		coord Coordinate {
			point [
				0 0 -100,
				0 0 -50,
				0 0 -46.7979,
				6.49537 50 -14.9767,
				64.9537 500 271.414,
			]
		}
		coordIndex [
			0, 1, 2, 3, 4, -1
		]
	}
}
#---------- POLYLINE
Shape {
	appearance Appearance {
		material Material {
			diffuseColor 0 1 0
			emissiveColor 0 1 0
		}
	}
	geometry IndexedLineSet {
		coord Coordinate {
			point [
				0 0 -100,
				0 0 -50,
				0 0 6.97833,
				19.6678 6.6762 50,
				225.389 76.5082 500,
			]
		}
		coordIndex [
			0, 1, 2, 3, 4, -1
		]
	}
}
#---------- POLYLINE
Shape {
	appearance Appearance {
		material Material {
			diffuseColor 0 1 0
			emissiveColor 0 1 0
		}
	}
	geometry IndexedLineSet {
		coord Coordinate {
			point [
				0 0 -100,
				0 0 -50,
				0 0 50,
				0 0 500,
			]
		}
		coordIndex [
			0, 1, 2, 3, -1
		]
	}
}
#End of file.
